{
.appVersion = "930";
copyright = "Copyright 2016 Jeremy Tribby. SIL OFL License v1.1.";
date = "2016-07-12 00:27:02 +0000";
designer = "Jeremy Tribby";
designerURL = "http://tribby.com/";
familyName = Barlow;
featurePrefixes = (
{
automatic = 1;
code = "languagesystem DFLT dflt;\012";
name = Languagesystems;
}
);
features = (
{
automatic = 1;
code = "sub hyphen hyphen by hyphen_hyphen.liga;\012";
name = liga;
}
);
fontMaster = (
{
alignmentZones = (
"{800, 16}",
"{700, 10}",
"{500, 6}",
"{0, -10}",
"{-200, -3}"
);
ascender = 800;
capHeight = 700;
customParameters = (
{
name = paramArea;
value = "488";
},
{
name = paramDepth;
value = "16";
},
{
name = paramOver;
value = "0";
}
);
descender = -200;
horizontalStems = (
22,
22
);
id = "262880E7-CFE1-4BDA-902E-E24798F3240A";
userData = {
GSCornerRadius = 8;
GSOffsetHorizontal = 100;
GSOffsetMakeStroke = 1;
GSOffsetVertical = 90;
noodleExtremesAndInflections = 1;
noodleRemoveOverlap = 1;
noodleThickness = "22.0";
};
verticalStems = (
21,
21
);
visible = 1;
weight = Light;
weightValue = 23;
xHeight = 500;
},
{
alignmentZones = (
"{800, 16}",
"{700, 13}",
"{500, 9}",
"{0, -13}",
"{-200, -10}"
);
ascender = 800;
capHeight = 700;
customParameters = (
{
name = paramArea;
value = "488";
},
{
name = paramDepth;
value = "16";
},
{
name = paramOver;
value = "0";
}
);
descender = -200;
horizontalStems = (
188,
188
);
id = "4E2227F3-52E4-4048-A8EE-327B486EF0A4";
userData = {
GSCornerRadius = 8;
GSOffsetHorizontal = 60;
GSOffsetMakeStroke = 1;
GSOffsetVertical = 60;
noodleExtremesAndInflections = 1;
noodleRemoveOverlap = 1;
noodleThickness = "22.0";
};
verticalStems = (
166,
150
);
visible = 1;
weight = Bold;
weightValue = 188;
xHeight = 500;
}
);
glyphs = (
{
glyphname = A;
lastChange = "2016-10-25 03:41:03 +0000";
layers = (
{
layerId = "262880E7-CFE1-4BDA-902E-E24798F3240A";
paths = (
{
closed = 1;
nodes = (
"63 0 LINE",
"253 658 LINE",
"443 0 LINE",
"465 0 LINE",
"264 700 LINE",
"241 700 LINE",
"40 0 LINE"
);
},
{
closed = 1;
nodes = (
"410 145 LINE",
"410 166 LINE",
"100 166 LINE",
"100 145 LINE"
);
}
);
width = 477;
},
{
layerId = "4E2227F3-52E4-4048-A8EE-327B486EF0A4";
paths = (
{
closed = 1;
nodes = (
"188 0 LINE",
"274 449 LINE",
"346 0 LINE",
"534 0 LINE",
"370 700 LINE",
"164 700 LINE",
"0 0 LINE"
);
},
{
closed = 1;
nodes = (
"407 100 LINE",
"407 244 LINE",
"128 244 LINE",
"128 100 LINE"
);
}
);
width = 534;
},
{
associatedMasterId = "4E2227F3-52E4-4048-A8EE-327B486EF0A4";
layerId = "B2AD9D15-068E-4289-9788-E632C141076D";
name = "Medium{85,100}";
paths = (
{
closed = 1;
nodes = (
"85 0 LINE",
"236 579 LINE",
"382 0 LINE",
"466 0 LINE",
"279 700 LINE",
"187 700 LINE",
"0 0 LINE"
);
},
{
closed = 1;
nodes = (
"384 122 LINE",
"384 205 LINE",
"86 205 LINE",
"86 122 LINE"
);
}
);
width = 466;
}
);
leftKerningGroup = A;
rightKerningGroup = A;
unicode = 0041;
},
{
glyphname = B;
lastChange = "2016-10-25 03:41:03 +0000";
layers = (
{
layerId = "262880E7-CFE1-4BDA-902E-E24798F3240A";
paths = (
{
closed = 1;
nodes = (
"130 679 LINE",
"288 679 LINE SMOOTH",
"385 679 OFFCURVE",
"449 617 OFFCURVE",
"449 523 CURVE SMOOTH",
"449 432 OFFCURVE",
"385 372 OFFCURVE",
"288 372 CURVE SMOOTH",
"130 372 LINE"
);
},
{
closed = 1;
nodes = (
"288 351 LINE SMOOTH",
"398 351 OFFCURVE",
"471 420 OFFCURVE",
"471 523 CURVE SMOOTH",
"471 629 OFFCURVE",
"398 700 OFFCURVE",
"288 700 CURVE SMOOTH",
"108 700 LINE",
"108 351 LINE"
);
},
{
closed = 1;
nodes = (
"130 351 LINE",
"288 351 LINE SMOOTH",
"385 351 OFFCURVE",
"449 284 OFFCURVE",
"449 186 CURVE SMOOTH",
"449 88 OFFCURVE",
"385 22 OFFCURVE",
"288 22 CURVE SMOOTH",
"130 22 LINE"
);
},
{
closed = 1;
nodes = (
"288 0 LINE SMOOTH",
"398 0 OFFCURVE",
"471 74 OFFCURVE",
"471 186 CURVE SMOOTH",
"471 298 OFFCURVE",
"398 372 OFFCURVE",
"288 372 CURVE SMOOTH",
"108 372 LINE",
"108 0 LINE"
);
}
);
width = 495;
},
{
layerId = "4E2227F3-52E4-4048-A8EE-327B486EF0A4";
paths = (
{
closed = 1;
nodes = (
"212 534 LINE",
"242 534 LINE",
"269 534 OFFCURVE",
"287 516 OFFCURVE",
"287 479 CURVE SMOOTH",
"287 442 OFFCURVE",
"269 411 OFFCURVE",
"242 411 CURVE",
"212 411 LINE"
);
},
{
closed = 1;
nodes = (
"196 312 LINE SMOOTH",
"338 312 OFFCURVE",
"475 387 OFFCURVE",
"475 503 CURVE SMOOTH",
"475 620 OFFCURVE",
"379 700 OFFCURVE",
"234 700 CURVE",
"24 700 LINE",
"24 312 LINE"
);
},
{
closed = 1;
nodes = (
"212 296 LINE",
"249 296 LINE SMOOTH",
"280 296 OFFCURVE",
"300 264 OFFCURVE",
"300 225 CURVE SMOOTH",
"300 186 OFFCURVE",
"279 166 OFFCURVE",
"248 166 CURVE SMOOTH",
"212 166 LINE"
);
},
{
closed = 1;
nodes = (
"263 0 LINE SMOOTH",
"398 0 OFFCURVE",
"488 83 OFFCURVE",
"488 204 CURVE SMOOTH",
"488 332 OFFCURVE",
"346 411 OFFCURVE",
"196 411 CURVE",
"24 411 LINE",
"24 0 LINE"
);
}
);
width = 498;
},
{
associatedMasterId = "4E2227F3-52E4-4048-A8EE-327B486EF0A4";
layerId = "61038666-3371-4C14-8B39-94AF9622E2C7";
name = "DemiBold{110,100}";
paths = (
{
closed = 1;
nodes = (
"160 603 LINE",
"251 603 LINE SMOOTH",
"310 603 OFFCURVE",
"350 563 OFFCURVE",
"350 503 CURVE SMOOTH",
"350 441 OFFCURVE",
"310 399 OFFCURVE",
"251 399 CURVE SMOOTH",
"160 399 LINE"
);
},
{
closed = 1;
nodes = (
"226 324 LINE SMOOTH",
"366 324 OFFCURVE",
"460 397 OFFCURVE",
"460 512 CURVE SMOOTH",
"460 625 OFFCURVE",
"374 700 OFFCURVE",
"246 700 CURVE SMOOTH",
"50 700 LINE",
"50 324 LINE"
);
},
{
closed = 1;
nodes = (
"160 316 LINE",
"254 316 LINE SMOOTH",
"316 316 OFFCURVE",
"357 268 OFFCURVE",
"357 204 CURVE SMOOTH",
"357 140 OFFCURVE",
"316 98 OFFCURVE",
"254 98 CURVE SMOOTH",
"160 98 LINE"
);
},
{
closed = 1;
nodes = (
"262 0 LINE SMOOTH",
"385 0 OFFCURVE",
"467 78 OFFCURVE",
"467 195 CURVE SMOOTH",
"467 322 OFFCURVE",
"371 401 OFFCURVE",
"226 399 CURVE SMOOTH",
"50 397 LINE",
"50 0 LINE"
);
}
);
width = 496;
}
);
unicode = 0042;
},
{
glyphname = C;
lastChange = "2016-10-25 07:11:51 +0000";
layers = (
{
layerId = "262880E7-CFE1-4BDA-902E-E24798F3240A";
paths = (
{
closed = 1;
nodes = (
"357 -9 OFFCURVE",
"426 56 OFFCURVE",
"426 154 CURVE SMOOTH",
"426 154 LINE",
"404 154 LINE",
"404 152 LINE SMOOTH",
"404 68 OFFCURVE",
"344 12 OFFCURVE",
"253 12 CURVE SMOOTH",
"162 12 OFFCURVE",
"102 68 OFFCURVE",
"102 152 CURVE SMOOTH",
"102 548 LINE SMOOTH",
"102 632 OFFCURVE",
"162 688 OFFCURVE",
"253 688 CURVE SMOOTH",
"344 688 OFFCURVE",
"404 632 OFFCURVE",
"404 548 CURVE SMOOTH",
"404 545 LINE",
"426 545 LINE",
"426 546 LINE SMOOTH",
"426 644 OFFCURVE",
"357 709 OFFCURVE",
"253 709 CURVE SMOOTH",
"149 709 OFFCURVE",
"80 644 OFFCURVE",
"80 546 CURVE SMOOTH",
"80 154 LINE SMOOTH",
"80 56 OFFCURVE",
"149 -9 OFFCURVE",
"253 -9 CURVE SMOOTH"
);
}
);
width = 476;
},
{
layerId = "4E2227F3-52E4-4048-A8EE-327B486EF0A4";
paths = (
{
closed = 1;
nodes = (
"388 -11 OFFCURVE",
"480 69 OFFCURVE",
"480 189 CURVE SMOOTH",
"480 259 LINE",
"292 259 LINE",
"292 196 LINE SMOOTH",
"292 171 OFFCURVE",
"275 152 OFFCURVE",
"248 152 CURVE SMOOTH",
"221 152 OFFCURVE",
"204 171 OFFCURVE",
"204 196 CURVE SMOOTH",
"204 506 LINE SMOOTH",
"204 531 OFFCURVE",
"221 550 OFFCURVE",
"248 550 CURVE SMOOTH",
"275 550 OFFCURVE",
"292 531 OFFCURVE",
"292 506 CURVE SMOOTH",
"292 441 LINE",
"480 441 LINE",
"480 513 LINE SMOOTH",
"480 633 OFFCURVE",
"388 713 OFFCURVE",
"248 713 CURVE SMOOTH",
"108 713 OFFCURVE",
"16 633 OFFCURVE",
"16 513 CURVE SMOOTH",
"16 189 LINE SMOOTH",
"16 69 OFFCURVE",
"108 -11 OFFCURVE",
"248 -11 CURVE SMOOTH"
);
}
);
width = 490;
}
);
leftKerningGroup = C;
rightKerningGroup = C;
unicode = 0043;
},
{
glyphname = D;
lastChange = "2016-10-25 04:03:54 +0000";
layers = (
{
layerId = "262880E7-CFE1-4BDA-902E-E24798F3240A";
paths = (
{
closed = 1;
nodes = (
"291 0 LINE SMOOTH",
"398 0 OFFCURVE",
"464 68 OFFCURVE",
"464 180 CURVE SMOOTH",
"464 520 LINE SMOOTH",
"464 632 OFFCURVE",
"398 700 OFFCURVE",
"291 700 CURVE SMOOTH",
"120 700 LINE",
"120 0 LINE"
);
},
{
closed = 1;
nodes = (
"142 679 LINE",
"293 679 LINE SMOOTH",
"385 679 OFFCURVE",
"442 619 OFFCURVE",
"442 520 CURVE SMOOTH",
"442 179 LINE SMOOTH",
"442 81 OFFCURVE",
"385 21 OFFCURVE",
"293 21 CURVE SMOOTH",
"142 21 LINE"
);
}
);
width = 544;
},
{
layerId = "4E2227F3-52E4-4048-A8EE-327B486EF0A4";
paths = (
{
closed = 1;
nodes = (
"259 0 LINE SMOOTH",
"394 0 OFFCURVE",
"484 80 OFFCURVE",
"484 200 CURVE SMOOTH",
"484 500 LINE SMOOTH",
"484 620 OFFCURVE",
"394 700 OFFCURVE",
"259 700 CURVE SMOOTH",
"24 700 LINE",
"24 0 LINE"
);
},
{
closed = 1;
nodes = (
"212 534 LINE",
"244 534 LINE SMOOTH",
"275 534 OFFCURVE",
"296 514 OFFCURVE",
"296 483 CURVE",
"296 217 LINE",
"294 187 OFFCURVE",
"273 167 OFFCURVE",
"244 166 CURVE SMOOTH",
"212 165 LINE"
);
}
);
width = 500;
}
);
rightKerningGroup = D;
unicode = 0044;
},
{
glyphname = E;
lastChange = "2016-10-25 03:41:03 +0000";
layers = (
{
layerId = "262880E7-CFE1-4BDA-902E-E24798F3240A";
paths = (
{
closed = 1;
nodes = (
"432 0 LINE",
"432 21 LINE",
"112 21 LINE",
"112 679 LINE",
"432 679 LINE",
"432 700 LINE",
"90 700 LINE",
"90 0 LINE"
);
},
{
closed = 1;
nodes = (
"335 340 LINE",
"335 361 LINE",
"101 361 LINE",
"101 340 LINE"
);
}
);
width = 456;
},
{
layerId = "4E2227F3-52E4-4048-A8EE-327B486EF0A4";
paths = (
{
closed = 1;
nodes = (
"459 0 LINE",
"459 158 LINE",
"212 158 LINE",
"212 542 LINE",
"459 542 LINE",
"459 700 LINE",
"24 700 LINE",
"24 0 LINE"
);
},
{
closed = 1;
nodes = (
"360 283 LINE",
"360 443 LINE",
"100 443 LINE",
"100 283 LINE"
);
}
);
width = 469;
}
);
unicode = 0045;
},
{
glyphname = F;
lastChange = "2016-10-25 03:41:03 +0000";
layers = (
{
layerId = "262880E7-CFE1-4BDA-902E-E24798F3240A";
paths = (
{
closed = 1;
nodes = (
"112 0 LINE",
"112 679 LINE",
"431 679 LINE",
"431 700 LINE",
"90 700 LINE",
"90 0 LINE"
);
},
{
closed = 1;
nodes = (
"334 340 LINE",
"334 361 LINE",
"101 361 LINE",
"101 340 LINE"
);
}
);
width = 443;
},
{
layerId = "4E2227F3-52E4-4048-A8EE-327B486EF0A4";
paths = (
{
closed = 1;
nodes = (
"212 0 LINE",
"212 534 LINE",
"459 534 LINE",
"459 700 LINE",
"24 700 LINE",
"24 0 LINE"
);
},
{
closed = 1;
nodes = (
"360 269 LINE",
"360 435 LINE",
"100 435 LINE",
"100 269 LINE"
);
}
);
width = 467;
}
);
unicode = 0046;
},
{
glyphname = G;
lastChange = "2016-10-25 07:12:20 +0000";
layers = (
{
layerId = "262880E7-CFE1-4BDA-902E-E24798F3240A";
paths = (
{
closed = 1;
nodes = (
"347 -9 OFFCURVE",
"416 56 OFFCURVE",
"416 154 CURVE SMOOTH",
"416 361 LINE",
"252 361 LINE",
"252 340 LINE",
"394 340 LINE",
"394 152 LINE SMOOTH",
"394 68 OFFCURVE",
"334 12 OFFCURVE",
"243 12 CURVE SMOOTH",
"152 12 OFFCURVE",
"92 68 OFFCURVE",
"92 152 CURVE SMOOTH",
"92 548 LINE SMOOTH",
"92 632 OFFCURVE",
"152 688 OFFCURVE",
"243 688 CURVE SMOOTH",
"334 688 OFFCURVE",
"394 632 OFFCURVE",
"394 548 CURVE SMOOTH",
"394 500 LINE",
"416 500 LINE",
"416 546 LINE SMOOTH",
"416 644 OFFCURVE",
"347 709 OFFCURVE",
"243 709 CURVE SMOOTH",
"139 709 OFFCURVE",
"70 644 OFFCURVE",
"70 546 CURVE SMOOTH",
"70 154 LINE SMOOTH",
"70 56 OFFCURVE",
"139 -9 OFFCURVE",
"243 -9 CURVE SMOOTH"
);
}
);
width = 486;
},
{
layerId = "4E2227F3-52E4-4048-A8EE-327B486EF0A4";
paths = (
{
closed = 1;
nodes = (
"384 -11 OFFCURVE",
"476 69 OFFCURVE",
"476 189 CURVE SMOOTH",
"476 380 LINE",
"248 380 LINE",
"248 271 LINE",
"288 271 LINE",
"288 194 LINE SMOOTH",
"288 169 OFFCURVE",
"271 152 OFFCURVE",
"246 152 CURVE SMOOTH",
"221 152 OFFCURVE",
"204 169 OFFCURVE",
"204 194 CURVE SMOOTH",
"204 507 LINE SMOOTH",
"204 532 OFFCURVE",
"221 549 OFFCURVE",
"246 549 CURVE SMOOTH",
"271 549 OFFCURVE",
"288 532 OFFCURVE",
"288 507 CURVE SMOOTH",
"288 430 LINE",
"476 430 LINE",
"476 512 LINE SMOOTH",
"476 632 OFFCURVE",
"384 712 OFFCURVE",
"246 712 CURVE SMOOTH",
"108 712 OFFCURVE",
"16 632 OFFCURVE",
"16 512 CURVE SMOOTH",
"16 189 LINE SMOOTH",
"16 69 OFFCURVE",
"108 -11 OFFCURVE",
"246 -11 CURVE SMOOTH"
);
}
);
width = 492;
},
{
associatedMasterId = "4E2227F3-52E4-4048-A8EE-327B486EF0A4";
layerId = "3C312D8B-2C3F-47CF-BAFE-2D0CD7DFA532";
name = "DemiBold{110,100}";
paths = (
{
closed = 1;
nodes = (
"367 -10 OFFCURVE",
"448 63 OFFCURVE",
"448 172 CURVE SMOOTH",
"448 371 LINE",
"250 371 LINE",
"250 284 LINE",
"338 284 LINE",
"338 174 LINE SMOOTH",
"338 121 OFFCURVE",
"301 86 OFFCURVE",
"245 86 CURVE SMOOTH",
"188 86 OFFCURVE",
"151 121 OFFCURVE",
"151 174 CURVE SMOOTH",
"151 526 LINE SMOOTH",
"151 579 OFFCURVE",
"188 615 OFFCURVE",
"245 615 CURVE SMOOTH",
"301 615 OFFCURVE",
"338 579 OFFCURVE",
"338 526 CURVE SMOOTH",
"338 463 LINE",
"448 463 LINE",
"448 528 LINE SMOOTH",
"448 638 OFFCURVE",
"367 711 OFFCURVE",
"245 711 CURVE SMOOTH",
"123 711 OFFCURVE",
"42 638 OFFCURVE",
"42 528 CURVE SMOOTH",
"42 172 LINE SMOOTH",
"42 63 OFFCURVE",
"123 -10 OFFCURVE",
"245 -10 CURVE SMOOTH"
);
}
);
width = 489;
}
);
leftKerningGroup = C;
rightKerningGroup = G;
unicode = 0047;
},
{
glyphname = H;
lastChange = "2016-10-25 03:41:03 +0000";
layers = (
{
layerId = "262880E7-CFE1-4BDA-902E-E24798F3240A";
paths = (
{
closed = 1;
nodes = (
"424 0 LINE",
"424 700 LINE",
"402 700 LINE",
"402 0 LINE"
);
},
{
closed = 1;
nodes = (
"102 0 LINE",
"102 700 LINE",
"80 700 LINE",
"80 0 LINE"
);
},
{
closed = 1;
nodes = (
"407 340 LINE",
"407 361 LINE",
"97 361 LINE",
"97 340 LINE"
);
}
);
width = 499;
},
{
layerId = "4E2227F3-52E4-4048-A8EE-327B486EF0A4";
paths = (
{
closed = 1;
nodes = (
"470 0 LINE",
"470 700 LINE",
"282 700 LINE",
"282 0 LINE"
);
},
{
closed = 1;
nodes = (
"212 0 LINE",
"212 700 LINE",
"24 700 LINE",
"24 0 LINE"
);
},
{
closed = 1;
nodes = (
"349 275 LINE",
"349 435 LINE",
"144 435 LINE",
"144 275 LINE"
);
}
);
width = 494;
}
);
unicode = 0048;
},
{
glyphname = I;
lastChange = "2016-10-25 03:41:03 +0000";
layers = (
{
layerId = "262880E7-CFE1-4BDA-902E-E24798F3240A";
paths = (
{
closed = 1;
nodes = (
"124 0 LINE",
"124 700 LINE",
"102 700 LINE",
"102 0 LINE"
);
}
);
width = 226;
},
{
layerId = "4E2227F3-52E4-4048-A8EE-327B486EF0A4";
paths = (
{
closed = 1;
nodes = (
"212 0 LINE",
"212 700 LINE",
"24 700 LINE",
"24 0 LINE"
);
}
);
width = 236;
}
);
unicode = 0049;
},
{
glyphname = J;
lastChange = "2016-10-25 07:12:37 +0000";
layers = (
{
layerId = "262880E7-CFE1-4BDA-902E-E24798F3240A";
paths = (
{
closed = 1;
nodes = (
"334 -9 OFFCURVE",
"402 56 OFFCURVE",
"402 154 CURVE SMOOTH",
"402 700 LINE",
"380 700 LINE",
"380 152 LINE SMOOTH",
"380 68 OFFCURVE",
"320 12 OFFCURVE",
"231 12 CURVE SMOOTH",
"142 12 OFFCURVE",
"82 68 OFFCURVE",
"82 152 CURVE SMOOTH",
"82 234 LINE",
"60 234 LINE",
"60 154 LINE SMOOTH",
"60 56 OFFCURVE",
"128 -9 OFFCURVE",
"231 -9 CURVE SMOOTH"
);
}
);
width = 498;
},
{
layerId = "4E2227F3-52E4-4048-A8EE-327B486EF0A4";
paths = (
{
closed = 1;
nodes = (
"384 -8 OFFCURVE",
"476 72 OFFCURVE",
"476 192 CURVE SMOOTH",
"476 700 LINE",
"288 700 LINE",
"288 197 LINE SMOOTH",
"288 172 OFFCURVE",
"271 155 OFFCURVE",
"246 155 CURVE SMOOTH",
"221 155 OFFCURVE",
"204 172 OFFCURVE",
"204 197 CURVE SMOOTH",
"204 265 LINE",
"16 265 LINE",
"16 192 LINE SMOOTH",
"16 72 OFFCURVE",
"108 -8 OFFCURVE",
"246 -8 CURVE SMOOTH"
);
}
);
width = 500;
}
);
leftKerningGroup = J;
rightKerningGroup = J;
unicode = 004A;
},
{
glyphname = K;
lastChange = "2016-10-25 03:41:03 +0000";
layers = (
{
layerId = "262880E7-CFE1-4BDA-902E-E24798F3240A";
paths = (
{
closed = 1;
nodes = (
"130 0 LINE",
"130 328 LINE",
"411 0 LINE",
"440 0 LINE",
"138 350 LINE",
"440 700 LINE",
"411 700 LINE",
"130 372 LINE",
"130 700 LINE",
"108 700 LINE",
"108 0 LINE"
);
}
);
width = 428;
},
{
layerId = "4E2227F3-52E4-4048-A8EE-327B486EF0A4";
paths = (
{
closed = 1;
nodes = (
"212 0 LINE",
"212 217 LINE",
"314 0 LINE",
"529 0 LINE",
"338 360 LINE",
"537 700 LINE",
"329 700 LINE",
"212 461 LINE",
"212 700 LINE",
"24 700 LINE",
"24 0 LINE"
);
}
);
width = 537;
}
);
rightKerningGroup = K;
unicode = 004B;
},
{
glyphname = L;
lastChange = "2016-10-25 03:41:03 +0000";
layers = (
{
layerId = "262880E7-CFE1-4BDA-902E-E24798F3240A";
paths = (
{
closed = 1;
nodes = (
"441 0 LINE",
"441 21 LINE",
"130 21 LINE",
"130 700 LINE",
"108 700 LINE",
"108 0 LINE"
);
}
);
width = 453;
},
{
layerId = "4E2227F3-52E4-4048-A8EE-327B486EF0A4";
paths = (
{
closed = 1;
nodes = (
"459 0 LINE",
"459 160 LINE",
"212 160 LINE",
"212 700 LINE",
"24 700 LINE",
"24 0 LINE"
);
}
);
width = 463;
}
);
rightKerningGroup = L;
unicode = 004C;
},
{
glyphname = M;
lastChange = "2016-10-25 07:14:31 +0000";
layers = (
{
layerId = "262880E7-CFE1-4BDA-902E-E24798F3240A";
paths = (
{
closed = 1;
nodes = (
"130 0 LINE",
"130 651 LINE",
"298 327 LINE",
"466 651 LINE",
"466 0 LINE",
"488 0 LINE",
"488 700 LINE",
"466 700 LINE",
"298 372 LINE",
"130 700 LINE",
"108 700 LINE",
"108 0 LINE"
);
}
);
width = 596;
},
{
layerId = "4E2227F3-52E4-4048-A8EE-327B486EF0A4";
paths = (
{
closed = 1;
nodes = (
"212 0 LINE",
"212 424 LINE",
"279 276 LINE",
"344 421 LINE",
"344 0 LINE",
"532 0 LINE",
"532 700 LINE",
"349 700 LINE",
"279 557 LINE",
"207 700 LINE",
"24 700 LINE",
"24 0 LINE"
);
}
);
width = 556;
},
{
associatedMasterId = "4E2227F3-52E4-4048-A8EE-327B486EF0A4";
layerId = "C6629B64-9ED2-4F57-9FC9-8668B05C088F";
name = "DemiBold{110,100}";
paths = (
{
closed = 1;
nodes = (
"173 0 LINE",
"173 501 LINE",
"288 270 LINE",
"402 500 LINE",
"402 0 LINE",
"511 0 LINE",
"511 700 LINE",
"404 700 LINE",
"288 470 LINE",
"171 700 LINE",
"64 700 LINE",
"64 0 LINE"
);
}
);
width = 575;
}
);
unicode = 004D;
},
{
glyphname = N;
lastChange = "2016-10-25 07:15:50 +0000";
layers = (
{
layerId = "262880E7-CFE1-4BDA-902E-E24798F3240A";
paths = (
{
closed = 1;
nodes = (
"102 0 LINE",
"102 647 LINE",
"420 0 LINE",
"442 0 LINE",
"442 700 LINE",
"420 700 LINE",
"420 53 LINE",
"102 700 LINE",
"80 700 LINE",
"80 0 LINE"
);
}
);
width = 522;
},
{
layerId = "4E2227F3-52E4-4048-A8EE-327B486EF0A4";
paths = (
{
closed = 1;
nodes = (
"210 0 LINE",
"208 346 LINE",
"320 0 LINE",
"524 0 LINE",
"524 700 LINE",
"338 700 LINE",
"340 356 LINE",
"228 700 LINE",
"24 700 LINE",
"24 0 LINE"
);
}
);
width = 548;
},
{
associatedMasterId = "4E2227F3-52E4-4048-A8EE-327B486EF0A4";
layerId = "3255EADC-07B8-4519-845B-D97716A0B38E";
name = "Bold{137,100}";
paths = (
{
closed = 1;
nodes = (
"178 0 LINE",
"177 401 LINE",
"377 0 LINE",
"503 0 LINE",
"503 700 LINE",
"366 700 LINE",
"367 282 LINE",
"171 700 LINE",
"41 700 LINE",
"41 0 LINE"
);
}
);
width = 544;
},
{
associatedMasterId = "4E2227F3-52E4-4048-A8EE-327B486EF0A4";
layerId = "DF669AD4-27AD-43B9-B19B-54B9CE6384D6";
name = "Medium{85,100}";
paths = (
{
closed = 1;
nodes = (
"143 0 LINE",
"143 507 LINE",
"391 0 LINE",
"475 0 LINE",
"475 700 LINE",
"391 700 LINE",
"391 184 LINE",
"143 700 LINE",
"59 700 LINE",
"59 0 LINE"
);
}
);
width = 534;
}
);
unicode = 004E;
},
{
glyphname = O;
lastChange = "2016-10-25 07:12:46 +0000";
layers = (
{
layerId = "262880E7-CFE1-4BDA-902E-E24798F3240A";
paths = (
{
closed = 1;
nodes = (
"371 -9 OFFCURVE",
"442 56 OFFCURVE",
"442 154 CURVE SMOOTH",
"442 546 LINE SMOOTH",
"442 644 OFFCURVE",
"371 709 OFFCURVE",
"261 709 CURVE SMOOTH",
"151 709 OFFCURVE",
"80 644 OFFCURVE",
"80 546 CURVE SMOOTH",
"80 154 LINE SMOOTH",
"80 56 OFFCURVE",
"151 -9 OFFCURVE",
"261 -9 CURVE SMOOTH"
);
},
{
closed = 1;
nodes = (
"164 12 OFFCURVE",
"102 68 OFFCURVE",
"102 152 CURVE SMOOTH",
"102 548 LINE SMOOTH",
"102 632 OFFCURVE",
"164 688 OFFCURVE",
"261 688 CURVE SMOOTH",
"358 688 OFFCURVE",
"420 632 OFFCURVE",
"420 548 CURVE SMOOTH",
"420 152 LINE SMOOTH",
"420 68 OFFCURVE",
"358 12 OFFCURVE",
"261 12 CURVE SMOOTH"
);
}
);
width = 522;
},
{
layerId = "4E2227F3-52E4-4048-A8EE-327B486EF0A4";
paths = (
{
closed = 1;
nodes = (
"399 -12 OFFCURVE",
"494 68 OFFCURVE",
"494 188 CURVE SMOOTH",
"494 512 LINE SMOOTH",
"494 632 OFFCURVE",
"399 712 OFFCURVE",
"255 712 CURVE SMOOTH",
"111 712 OFFCURVE",
"16 632 OFFCURVE",
"16 512 CURVE SMOOTH",
"16 188 LINE SMOOTH",
"16 68 OFFCURVE",
"111 -12 OFFCURVE",
"255 -12 CURVE SMOOTH"
);
},
{
closed = 1;
nodes = (
"224 150 OFFCURVE",
"204 175 OFFCURVE",
"204 204 CURVE SMOOTH",
"204 496 LINE SMOOTH",
"204 525 OFFCURVE",
"224 550 OFFCURVE",
"255 550 CURVE SMOOTH",
"286 550 OFFCURVE",
"306 525 OFFCURVE",
"306 496 CURVE SMOOTH",
"306 204 LINE SMOOTH",
"306 175 OFFCURVE",
"286 150 OFFCURVE",
"255 150 CURVE SMOOTH"
);
}
);
width = 510;
},
{
associatedMasterId = "4E2227F3-52E4-4048-A8EE-327B486EF0A4";
layerId = "B5FE8D02-DC93-44A1-AC92-8BAC5724F6F8";
name = "Oct 23 16, 17:19";
paths = (
{
closed = 1;
nodes = (
"404 -12 OFFCURVE",
"499 68 OFFCURVE",
"499 188 CURVE SMOOTH",
"499 512 LINE SMOOTH",
"499 632 OFFCURVE",
"404 712 OFFCURVE",
"260 712 CURVE SMOOTH",
"116 712 OFFCURVE",
"21 632 OFFCURVE",
"21 512 CURVE SMOOTH",
"21 188 LINE SMOOTH",
"21 68 OFFCURVE",
"116 -12 OFFCURVE",
"260 -12 CURVE SMOOTH"
);
},
{
closed = 1;
nodes = (
"229 148 OFFCURVE",
"209 173 OFFCURVE",
"209 202 CURVE SMOOTH",
"209 498 LINE SMOOTH",
"209 527 OFFCURVE",
"229 552 OFFCURVE",
"260 552 CURVE SMOOTH",
"291 552 OFFCURVE",
"311 527 OFFCURVE",
"311 498 CURVE SMOOTH",
"311 202 LINE SMOOTH",
"311 173 OFFCURVE",
"291 148 OFFCURVE",
"260 148 CURVE SMOOTH"
);
},
{
closed = 1;
nodes = (
"238 0 LINE",
"492 700 LINE",
"304 700 LINE",
"50 0 LINE"
);
}
);
width = 520;
}
);
unicode = 004F;
},
{
glyphname = P;
lastChange = "2016-10-25 07:16:35 +0000";
layers = (
{
layerId = "262880E7-CFE1-4BDA-902E-E24798F3240A";
paths = (
{
closed = 1;
nodes = (
"113 0 LINE",
"113 680 LINE",
"290 680 LINE SMOOTH",
"374 680 OFFCURVE",
"430 616 OFFCURVE",
"430 520 CURVE SMOOTH",
"430 424 OFFCURVE",
"374 360 OFFCURVE",
"290 360 CURVE SMOOTH",
"108 360 LINE",
"108 340 LINE",
"288 340 LINE SMOOTH",
"386 340 OFFCURVE",
"451 411 OFFCURVE",
"451 520 CURVE SMOOTH",
"451 629 OFFCURVE",
"386 702 OFFCURVE",
"288 702 CURVE SMOOTH",
"90 702 LINE",
"90 0 LINE"
);
}
);
width = 475;
},
{
layerId = "4E2227F3-52E4-4048-A8EE-327B486EF0A4";
paths = (
{
closed = 1;
nodes = (
"212 0 LINE",
"212 540 LINE",
"247 540 LINE SMOOTH",
"279 540 OFFCURVE",
"301 514 OFFCURVE",
"301 476 CURVE SMOOTH",
"301 438 OFFCURVE",
"279 412 OFFCURVE",
"247 412 CURVE SMOOTH",
"196 412 LINE",
"196 252 LINE",
"279 252 LINE SMOOTH",
"405 252 OFFCURVE",
"489 346 OFFCURVE",
"489 476 CURVE SMOOTH",
"489 610 OFFCURVE",
"401 700 OFFCURVE",
"269 700 CURVE SMOOTH",
"24 700 LINE",
"24 0 LINE"
);
}
);
width = 501;
}
);
unicode = 0050;
},
{
glyphname = Q;
lastChange = "2016-10-25 07:17:01 +0000";
layers = (
{
layerId = "262880E7-CFE1-4BDA-902E-E24798F3240A";
paths = (
{
closed = 1;
nodes = (
"342 -9 OFFCURVE",
"412 56 OFFCURVE",
"412 154 CURVE SMOOTH",
"412 546 LINE SMOOTH",
"412 644 OFFCURVE",
"342 709 OFFCURVE",
"236 709 CURVE SMOOTH",
"130 709 OFFCURVE",
"60 644 OFFCURVE",
"60 546 CURVE SMOOTH",
"60 154 LINE SMOOTH",
"60 56 OFFCURVE",
"130 -9 OFFCURVE",
"236 -9 CURVE SMOOTH"
);
},
{
closed = 1;
nodes = (
"371 -51 LINE",
"172 16 LINE",
"172 0 LINE",
"371 -72 LINE"
);
},
{
closed = 1;
nodes = (
"143 12 OFFCURVE",
"82 68 OFFCURVE",
"82 152 CURVE SMOOTH",
"82 548 LINE SMOOTH",
"82 632 OFFCURVE",
"143 688 OFFCURVE",
"236 688 CURVE SMOOTH",
"329 688 OFFCURVE",
"390 632 OFFCURVE",
"390 548 CURVE SMOOTH",
"390 152 LINE SMOOTH",
"390 68 OFFCURVE",
"329 12 OFFCURVE",
"236 12 CURVE SMOOTH"
);
}
);
width = 482;
},
{
layerId = "4E2227F3-52E4-4048-A8EE-327B486EF0A4";
paths = (
{
closed = 1;
nodes = (
"394 -8 OFFCURVE",
"488 72 OFFCURVE",
"488 192 CURVE SMOOTH",
"488 508 LINE SMOOTH",
"488 628 OFFCURVE",
"394 708 OFFCURVE",
"252 708 CURVE SMOOTH",
"110 708 OFFCURVE",
"16 628 OFFCURVE",
"16 508 CURVE SMOOTH",
"16 192 LINE SMOOTH",
"16 72 OFFCURVE",
"110 -8 OFFCURVE",
"252 -8 CURVE SMOOTH"
);
},
{
closed = 1;
nodes = (
"516 71 LINE",
"174 66 LINE",
"177 1 LINE",
"479 -64 LINE"
);
},
{
closed = 1;
nodes = (
"223 155 OFFCURVE",
"204 175 OFFCURVE",
"204 206 CURVE SMOOTH",
"204 494 LINE SMOOTH",
"204 525 OFFCURVE",
"223 545 OFFCURVE",
"252 545 CURVE SMOOTH",
"281 545 OFFCURVE",
"300 525 OFFCURVE",
"300 494 CURVE SMOOTH",
"300 206 LINE SMOOTH",
"300 175 OFFCURVE",
"281 155 OFFCURVE",
"252 155 CURVE SMOOTH"
);
}
);
width = 510;
}
);
leftKerningGroup = C;
unicode = 0051;
},
{
glyphname = R;
lastChange = "2016-10-25 07:16:47 +0000";
layers = (
{
layerId = "262880E7-CFE1-4BDA-902E-E24798F3240A";
paths = (
{
closed = 1;
nodes = (
"131 0 LINE",
"131 680 LINE",
"312 680 LINE SMOOTH",
"396 680 OFFCURVE",
"452 616 OFFCURVE",
"452 520 CURVE SMOOTH",
"452 424 OFFCURVE",
"396 360 OFFCURVE",
"312 360 CURVE SMOOTH",
"126 360 LINE",
"126 340 LINE",
"310 340 LINE SMOOTH",
"408 340 OFFCURVE",
"473 411 OFFCURVE",
"473 520 CURVE SMOOTH",
"473 629 OFFCURVE",
"408 702 OFFCURVE",
"310 702 CURVE SMOOTH",
"108 702 LINE",
"108 0 LINE"
);
},
{
closed = 1;
nodes = (
"451 0 LINE",
"330 349 LINE",
"312 341 LINE",
"429 0 LINE"
);
}
);
width = 533;
},
{
layerId = "4E2227F3-52E4-4048-A8EE-327B486EF0A4";
paths = (
{
closed = 1;
nodes = (
"212 0 LINE",
"212 540 LINE",
"260 540 LINE SMOOTH",
"292 540 OFFCURVE",
"314 514 OFFCURVE",
"314 476 CURVE SMOOTH",
"314 438 OFFCURVE",
"292 412 OFFCURVE",
"260 412 CURVE SMOOTH",
"196 412 LINE",
"196 256 LINE",
"292 256 LINE SMOOTH",
"418 256 OFFCURVE",
"502 346 OFFCURVE",
"502 476 CURVE SMOOTH",
"502 610 OFFCURVE",
"414 700 OFFCURVE",
"282 700 CURVE SMOOTH",
"24 700 LINE",
"24 0 LINE"
);
},
{
closed = 1;
nodes = (
"503 0 LINE",
"409 338 LINE",
"231 338 LINE",
"309 0 LINE"
);
}
);
width = 513;
}
);
rightKerningGroup = R;
unicode = 0052;
},
{
glyphname = S;
lastChange = "2016-10-25 04:03:54 +0000";
layers = (
{
layerId = "262880E7-CFE1-4BDA-902E-E24798F3240A";
paths = (
{
closed = 1;
nodes = (
"318 -9 OFFCURVE",
"382 49 OFFCURVE",
"382 149 CURVE SMOOTH",
"382 254 OFFCURVE",
"299 307 OFFCURVE",
"217 359 CURVE SMOOTH",
"139 409 OFFCURVE",
"62 457 OFFCURVE",
"62 550 CURVE SMOOTH",
"62 637 OFFCURVE",
"116 688 OFFCURVE",
"208 688 CURVE SMOOTH",
"300 688 OFFCURVE",
"354 636 OFFCURVE",
"354 548 CURVE SMOOTH",
"354 500 LINE",
"376 500 LINE",
"376 549 LINE SMOOTH",
"376 650 OFFCURVE",
"314 709 OFFCURVE",
"208 709 CURVE SMOOTH",
"102 709 OFFCURVE",
"40 651 OFFCURVE",
"40 552 CURVE SMOOTH",
"40 448 OFFCURVE",
"123 395 OFFCURVE",
"204 343 CURVE SMOOTH",
"283 293 OFFCURVE",
"360 243 OFFCURVE",
"360 149 CURVE SMOOTH",
"360 63 OFFCURVE",
"304 12 OFFCURVE",
"209 12 CURVE SMOOTH",
"116 12 OFFCURVE",
"62 63 OFFCURVE",
"62 151 CURVE SMOOTH",
"62 210 LINE",
"42 210 LINE",
"42 150 LINE SMOOTH",
"42 50 OFFCURVE",
"104 -9 OFFCURVE",
"210 -9 CURVE SMOOTH"
);
}
);
width = 422;
},
{
layerId = "4E2227F3-52E4-4048-A8EE-327B486EF0A4";
paths = (
{
closed = 1;
nodes = (
"363 -8 OFFCURVE",
"452 70 OFFCURVE",
"452 187 CURVE SMOOTH",
"452 288 OFFCURVE",
"385 338 OFFCURVE",
"280 412 CURVE SMOOTH",
"213 459 OFFCURVE",
"193 475 OFFCURVE",
"193 508 CURVE SMOOTH",
"193 534 OFFCURVE",
"206 548 OFFCURVE",
"227 548 CURVE SMOOTH",
"248 548 OFFCURVE",
"262 534 OFFCURVE",
"262 514 CURVE SMOOTH",
"262 490 LINE",
"447 490 LINE",
"447 509 LINE SMOOTH",
"447 628 OFFCURVE",
"360 708 OFFCURVE",
"228 708 CURVE SMOOTH",
"95 708 OFFCURVE",
"8 628 OFFCURVE",
"8 510 CURVE SMOOTH",
"8 387 OFFCURVE",
"103 322 OFFCURVE",
"178 272 CURVE SMOOTH",
"248 225 OFFCURVE",
"267 211 OFFCURVE",
"267 186 CURVE SMOOTH",
"267 164 OFFCURVE",
"253 152 OFFCURVE",
"233 152 CURVE SMOOTH",
"212 152 OFFCURVE",
"198 166 OFFCURVE",
"198 188 CURVE SMOOTH",
"198 211 LINE",
"13 211 LINE",
"13 180 LINE SMOOTH",
"13 70 OFFCURVE",
"98 -8 OFFCURVE",
"231 -8 CURVE SMOOTH"
);
}
);
width = 460;
}
);
leftKerningGroup = S;
rightKerningGroup = S;
unicode = 0053;
},
{
glyphname = T;
lastChange = "2016-10-25 03:41:03 +0000";
layers = (
{
layerId = "262880E7-CFE1-4BDA-902E-E24798F3240A";
paths = (
{
closed = 1;
nodes = (
"210 0 LINE",
"210 689 LINE",
"188 689 LINE",
"188 0 LINE"
);
},
{
closed = 1;
nodes = (
"388 679 LINE",
"388 700 LINE",
"18 700 LINE",
"18 679 LINE"
);
}
);
width = 400;
},
{
layerId = "4E2227F3-52E4-4048-A8EE-327B486EF0A4";
paths = (
{
closed = 1;
nodes = (
"328 0 LINE",
"328 689 LINE",
"140 689 LINE",
"140 0 LINE"
);
},
{
closed = 1;
nodes = (
"470 540 LINE",
"470 700 LINE",
"2 700 LINE",
"2 540 LINE"
);
}
);
width = 472;
}
);
leftKerningGroup = T;
rightKerningGroup = T;
unicode = 0054;
},
{
glyphname = U;
lastChange = "2016-10-25 07:12:58 +0000";
layers = (
{
layerId = "262880E7-CFE1-4BDA-902E-E24798F3240A";
paths = (
{
closed = 1;
nodes = (
"356 -9 OFFCURVE",
"428 59 OFFCURVE",
"428 160 CURVE SMOOTH",
"428 700 LINE",
"406 700 LINE",
"406 156 LINE SMOOTH",
"406 70 OFFCURVE",
"343 12 OFFCURVE",
"249 12 CURVE SMOOTH",
"155 12 OFFCURVE",
"92 70 OFFCURVE",
"92 156 CURVE SMOOTH",
"92 700 LINE",
"70 700 LINE",
"70 160 LINE SMOOTH",
"70 59 OFFCURVE",
"142 -9 OFFCURVE",
"249 -9 CURVE SMOOTH"
);
}
);
width = 498;
},
{
layerId = "4E2227F3-52E4-4048-A8EE-327B486EF0A4";
paths = (
{
closed = 1;
nodes = (
"391 -8 OFFCURVE",
"484 72 OFFCURVE",
"484 192 CURVE SMOOTH",
"484 700 LINE",
"296 700 LINE",
"296 201 LINE SMOOTH",
"296 173 OFFCURVE",
"278 155 OFFCURVE",
"254 155 CURVE SMOOTH",
"230 155 OFFCURVE",
"212 173 OFFCURVE",
"212 201 CURVE SMOOTH",
"212 700 LINE",
"24 700 LINE",
"24 192 LINE SMOOTH",
"24 72 OFFCURVE",
"117 -8 OFFCURVE",
"254 -8 CURVE SMOOTH"
);
}
);
width = 508;
}
);
leftKerningGroup = U;
rightKerningGroup = U;
unicode = 0055;
},
{
glyphname = V;
lastChange = "2016-10-25 03:41:03 +0000";
layers = (
{
layerId = "262880E7-CFE1-4BDA-902E-E24798F3240A";
paths = (
{
closed = 1;
nodes = (
"223 0 LINE",
"424 700 LINE",
"402 700 LINE",
"212 42 LINE",
"22 700 LINE",
"0 700 LINE",
"201 0 LINE"
);
}
);
width = 424;
},
{
layerId = "4E2227F3-52E4-4048-A8EE-327B486EF0A4";
paths = (
{
closed = 1;
nodes = (
"366 0 LINE",
"534 700 LINE",
"346 700 LINE",
"270 251 LINE",
"188 700 LINE",
"0 700 LINE",
"168 0 LINE"
);
}
);
width = 534;
}
);
unicode = 0056;
},
{
glyphname = W;
lastChange = "2016-10-25 03:45:57 +0000";
layers = (
{
layerId = "262880E7-CFE1-4BDA-902E-E24798F3240A";
paths = (
{
closed = 1;
nodes = (
"165 0 LINE",
"314 657 LINE",
"459 0 LINE",
"481 0 LINE",
"638 700 LINE",
"616 700 LINE",
"471 40 LINE",
"322 700 LINE",
"304 700 LINE",
"155 40 LINE",
"10 700 LINE",
"-12 700 LINE",
"143 0 LINE"
);
}
);
width = 626;
},
{
layerId = "4E2227F3-52E4-4048-A8EE-327B486EF0A4";
paths = (
{
closed = 1;
nodes = (
"305 0 LINE",
"350 362 LINE",
"399 0 LINE",
"575 0 LINE",
"719 700 LINE",
"526 700 LINE",
"496 342 LINE",
"453 700 LINE",
"278 700 LINE",
"228 342 LINE",
"198 700 LINE",
"0 700 LINE",
"143 0 LINE"
);
}
);
width = 719;
}
);
leftKerningGroup = W;
rightKerningGroup = W;
unicode = 0057;
},
{
glyphname = X;
lastChange = "2016-10-25 03:41:03 +0000";
layers = (
{
layerId = "262880E7-CFE1-4BDA-902E-E24798F3240A";
paths = (
{
closed = 1;
nodes = (
"13 0 LINE",
"188 330 LINE",
"363 0 LINE",
"388 0 LINE",
"199 349 LINE",
"388 700 LINE",
"363 700 LINE",
"188 369 LINE",
"13 700 LINE",
"-12 700 LINE",
"177 350 LINE",
"-12 0 LINE"
);
}
);
width = 376;
},
{
layerId = "4E2227F3-52E4-4048-A8EE-327B486EF0A4";
paths = (
{
closed = 1;
nodes = (
"191 0 LINE",
"247 162 LINE",
"302 0 LINE",
"493 0 LINE",
"346 350 LINE",
"493 700 LINE",
"301 700 LINE",
"247 537 LINE",
"192 700 LINE",
"0 700 LINE",
"147 350 LINE",
"0 0 LINE"
);
}
);
width = 493;
}
);
unicode = 0058;
},
{
glyphname = Y;
lastChange = "2016-10-25 03:41:03 +0000";
layers = (
{
layerId = "262880E7-CFE1-4BDA-902E-E24798F3240A";
paths = (
{
closed = 1;
nodes = (
"195 0 LINE",
"195 339 LINE",
"380 700 LINE",
"358 700 LINE",
"184 358 LINE",
"10 700 LINE",
"-12 700 LINE",
"173 339 LINE",
"173 0 LINE"
);
}
);
width = 368;
},
{
layerId = "4E2227F3-52E4-4048-A8EE-327B486EF0A4";
paths = (
{
closed = 1;
nodes = (
"352 2 LINE",
"352 257 LINE",
"517 700 LINE",
"327 700 LINE",
"259 462 LINE",
"190 700 LINE",
"0 700 LINE",
"164 257 LINE",
"164 2 LINE"
);
}
);
width = 517;
},
{
associatedMasterId = "262880E7-CFE1-4BDA-902E-E24798F3240A";
layerId = "394D83DF-4BD1-4276-9A3C-19912AD5F0BB";
name = "Oct 20 16, 01:26";
paths = (
{
closed = 1;
nodes = (
"404 700 LINE",
"382 700 LINE",
"208 360 LINE",
"34 700 LINE",
"12 700 LINE",
"208 318 LINE"
);
},
{
closed = 1;
nodes = (
"219 0 LINE",
"219 350 LINE",
"197 350 LINE",
"197 0 LINE"
);
}
);
width = 416;
}
);
leftKerningGroup = Y;
rightKerningGroup = Y;
unicode = 0059;
},
{
glyphname = Z;
lastChange = "2016-10-25 03:41:03 +0000";
layers = (
{
layerId = "262880E7-CFE1-4BDA-902E-E24798F3240A";
paths = (
{
closed = 1;
nodes = (
"348 0 LINE",
"348 21 LINE",
"25 21 LINE",
"348 679 LINE",
"348 700 LINE",
"0 700 LINE",
"0 679 LINE",
"324 679 LINE",
"0 21 LINE",
"0 0 LINE"
);
}
);
width = 348;
},
{
layerId = "4E2227F3-52E4-4048-A8EE-327B486EF0A4";
paths = (
{
closed = 1;
nodes = (
"414 0 LINE",
"414 160 LINE",
"184 160 LINE",
"414 540 LINE",
"414 700 LINE",
"4 700 LINE",
"4 540 LINE",
"233 540 LINE",
"4 160 LINE",
"4 0 LINE"
);
}
);
width = 416;
}
);
leftKerningGroup = Z;
rightKerningGroup = Z;
unicode = 005A;
},
{
glyphname = a;
lastChange = "2016-10-25 04:06:58 +0000";
layers = (
{
layerId = "262880E7-CFE1-4BDA-902E-E24798F3240A";
paths = (
{
closed = 1;
nodes = (
"356 -8 OFFCURVE",
"421 53 OFFCURVE",
"421 158 CURVE SMOOTH",
"421 342 LINE SMOOTH",
"421 441 OFFCURVE",
"362 508 OFFCURVE",
"256 508 CURVE SMOOTH",
"153 508 OFFCURVE",
"90 445 OFFCURVE",
"90 342 CURVE SMOOTH",
"90 158 LINE SMOOTH",
"90 55 OFFCURVE",
"155 -8 OFFCURVE",
"258 -8 CURVE SMOOTH"
);
},
{
closed = 1;
nodes = (
"167 13 OFFCURVE",
"112 67 OFFCURVE",
"112 155 CURVE SMOOTH",
"112 345 LINE SMOOTH",
"112 433 OFFCURVE",
"167 487 OFFCURVE",
"257 487 CURVE SMOOTH",
"347 487 OFFCURVE",
"402 433 OFFCURVE",
"402 345 CURVE SMOOTH",
"402 155 LINE SMOOTH",
"402 67 OFFCURVE",
"347 13 OFFCURVE",
"257 13 CURVE SMOOTH"
);
},
{
closed = 1;
nodes = (
"424 0 LINE",
"424 500 LINE",
"402 500 LINE",
"402 0 LINE"
);
}
);
width = 524;
},
{
layerId = "4E2227F3-52E4-4048-A8EE-327B486EF0A4";
paths = (
{
closed = 1;
nodes = (
"278 -5 OFFCURVE",
"345 72 OFFCURVE",
"345 177 CURVE SMOOTH",
"345 323 LINE SMOOTH",
"345 428 OFFCURVE",
"278 505 OFFCURVE",
"165 505 CURVE SMOOTH",
"85 505 OFFCURVE",
"18 466 OFFCURVE",
"18 359 CURVE SMOOTH",
"18 141 LINE SMOOTH",
"18 34 OFFCURVE",
"85 -5 OFFCURVE",
"165 -5 CURVE SMOOTH"
);
},
{
closed = 1;
nodes = (
"218 145 OFFCURVE",
"206 157 OFFCURVE",
"206 177 CURVE SMOOTH",
"206 323 LINE SMOOTH",
"206 343 OFFCURVE",
"218 355 OFFCURVE",
"235 355 CURVE SMOOTH",
"252 355 OFFCURVE",
"264 343 OFFCURVE",
"264 323 CURVE",
"264 177 LINE",
"264 157 OFFCURVE",
"252 145 OFFCURVE",
"235 145 CURVE SMOOTH"
);
},
{
closed = 1;
nodes = (
"452 1 LINE",
"452 501 LINE",
"264 501 LINE",
"264 1 LINE"
);
}
);
width = 472;
}
);
leftKerningGroup = a;
rightKerningGroup = a;
unicode = 0061;
},
{
glyphname = b;
lastChange = "2016-10-25 07:17:00 +0000";
layers = (
{
layerId = "262880E7-CFE1-4BDA-902E-E24798F3240A";
paths = (
{
closed = 1;
nodes = (
"353 -5 OFFCURVE",
"418 55 OFFCURVE",
"418 158 CURVE SMOOTH",
"418 342 LINE SMOOTH",
"418 445 OFFCURVE",
"355 508 OFFCURVE",
"252 508 CURVE SMOOTH",
"150 508 OFFCURVE",
"87 445 OFFCURVE",
"87 342 CURVE SMOOTH",
"87 158 LINE SMOOTH",
"87 55 OFFCURVE",
"148 -5 OFFCURVE",
"250 -5 CURVE SMOOTH"
);
},
{
closed = 1;
nodes = (
"106 3 LINE",
"106 700 LINE",
"84 700 LINE",
"84 3 LINE"
);
},
{
closed = 1;
nodes = (
"161 13 OFFCURVE",
"106 66 OFFCURVE",
"106 155 CURVE SMOOTH",
"106 345 LINE SMOOTH",
"106 433 OFFCURVE",
"161 487 OFFCURVE",
"251 487 CURVE SMOOTH",
"341 487 OFFCURVE",
"396 433 OFFCURVE",
"396 345 CURVE SMOOTH",
"396 155 LINE SMOOTH",
"396 67 OFFCURVE",
"341 13 OFFCURVE",
"251 13 CURVE SMOOTH"
);
}
);
width = 490;
},
{
layerId = "4E2227F3-52E4-4048-A8EE-327B486EF0A4";
paths = (
{
closed = 1;
nodes = (
"387 -5 OFFCURVE",
"454 34 OFFCURVE",
"454 141 CURVE SMOOTH",
"454 359 LINE SMOOTH",
"454 466 OFFCURVE",
"387 505 OFFCURVE",
"307 505 CURVE SMOOTH",
"194 505 OFFCURVE",
"127 428 OFFCURVE",
"127 323 CURVE SMOOTH",
"127 177 LINE SMOOTH",
"127 72 OFFCURVE",
"194 -5 OFFCURVE",
"307 -5 CURVE SMOOTH"
);
},
{
closed = 1;
nodes = (
"208 1 LINE",
"208 701 LINE",
"20 701 LINE",
"20 1 LINE"
);
},
{
closed = 1;
nodes = (
"220 145 OFFCURVE",
"208 157 OFFCURVE",
"208 177 CURVE",
"208 323 LINE",
"208 343 OFFCURVE",
"220 355 OFFCURVE",
"237 355 CURVE SMOOTH",
"254 355 OFFCURVE",
"266 343 OFFCURVE",
"266 323 CURVE SMOOTH",
"266 177 LINE SMOOTH",
"266 157 OFFCURVE",
"254 145 OFFCURVE",
"237 145 CURVE SMOOTH"
);
}
);
width = 472;
}
);
unicode = 0062;
},
{
glyphname = c;
lastChange = "2016-10-25 04:03:54 +0000";
layers = (
{
layerId = "262880E7-CFE1-4BDA-902E-E24798F3240A";
paths = (
{
closed = 1;
nodes = (
"352 -8 OFFCURVE",
"420 58 OFFCURVE",
"420 158 CURVE SMOOTH",
"420 159 LINE",
"398 159 LINE",
"398 155 LINE SMOOTH",
"398 70 OFFCURVE",
"338 13 OFFCURVE",
"250 13 CURVE SMOOTH",
"162 13 OFFCURVE",
"102 70 OFFCURVE",
"102 155 CURVE SMOOTH",
"102 345 LINE SMOOTH",
"102 430 OFFCURVE",
"162 487 OFFCURVE",
"250 487 CURVE SMOOTH",
"338 487 OFFCURVE",
"398 430 OFFCURVE",
"398 345 CURVE SMOOTH",
"398 341 LINE",
"420 341 LINE",
"420 342 LINE SMOOTH",
"420 442 OFFCURVE",
"352 508 OFFCURVE",
"250 508 CURVE SMOOTH",
"148 508 OFFCURVE",
"80 442 OFFCURVE",
"80 342 CURVE SMOOTH",
"80 158 LINE SMOOTH",
"80 58 OFFCURVE",
"148 -8 OFFCURVE",
"250 -8 CURVE SMOOTH"
);
}
);
width = 500;
},
{
layerId = "4E2227F3-52E4-4048-A8EE-327B486EF0A4";
paths = (
{
closed = 1;
nodes = (
"367 -7 OFFCURVE",
"450 69 OFFCURVE",
"450 182 CURVE SMOOTH",
"450 222 LINE",
"262 222 LINE",
"262 175 LINE SMOOTH",
"262 156 OFFCURVE",
"250 143 OFFCURVE",
"233 143 CURVE SMOOTH",
"216 143 OFFCURVE",
"204 156 OFFCURVE",
"204 175 CURVE SMOOTH",
"204 325 LINE SMOOTH",
"204 344 OFFCURVE",
"216 357 OFFCURVE",
"233 357 CURVE SMOOTH",
"250 357 OFFCURVE",
"262 344 OFFCURVE",
"262 325 CURVE SMOOTH",
"262 279 LINE",
"450 278 LINE",
"450 318 LINE SMOOTH",
"450 431 OFFCURVE",
"367 507 OFFCURVE",
"233 507 CURVE SMOOTH",
"99 507 OFFCURVE",
"16 431 OFFCURVE",
"16 318 CURVE SMOOTH",
"16 182 LINE SMOOTH",
"16 69 OFFCURVE",
"99 -7 OFFCURVE",
"233 -7 CURVE SMOOTH"
);
}
);
width = 466;
},
{
associatedMasterId = "262880E7-CFE1-4BDA-902E-E24798F3240A";
layerId = "AA68AA89-7B7F-412A-BC4D-3A50F432D1F5";
name = "Medium {85,100}";
paths = (
{
closed = 1;
nodes = (
"349 -5 OFFCURVE",
"422 65 OFFCURVE",
"422 170 CURVE SMOOTH",
"422 185 LINE",
"338 185 LINE",
"338 176 LINE SMOOTH",
"338 115 OFFCURVE",
"296 75 OFFCURVE",
"234 75 CURVE SMOOTH",
"172 75 OFFCURVE",
"130 115 OFFCURVE",
"130 176 CURVE SMOOTH",
"130 324 LINE SMOOTH",
"130 385 OFFCURVE",
"172 425 OFFCURVE",
"234 425 CURVE SMOOTH",
"296 425 OFFCURVE",
"338 385 OFFCURVE",
"338 324 CURVE SMOOTH",
"338 316 LINE",
"422 315 LINE",
"422 330 LINE SMOOTH",
"422 435 OFFCURVE",
"349 505 OFFCURVE",
"234 505 CURVE SMOOTH",
"119 505 OFFCURVE",
"46 435 OFFCURVE",
"46 330 CURVE SMOOTH",
"46 170 LINE SMOOTH",
"46 65 OFFCURVE",
"119 -5 OFFCURVE",
"234 -5 CURVE SMOOTH"
);
}
);
width = 453;
}
);
leftKerningGroup = c;
rightKerningGroup = c;
unicode = 0063;
},
{
glyphname = d;
lastChange = "2016-10-25 07:17:00 +0000";
layers = (
{
layerId = "262880E7-CFE1-4BDA-902E-E24798F3240A";
paths = (
{
closed = 1;
nodes = (
"357 -8 OFFCURVE",
"421 55 OFFCURVE",
"421 158 CURVE SMOOTH",
"421 342 LINE SMOOTH",
"421 445 OFFCURVE",
"358 508 OFFCURVE",
"256 508 CURVE SMOOTH",
"153 508 OFFCURVE",
"90 445 OFFCURVE",
"90 342 CURVE SMOOTH",
"90 158 LINE SMOOTH",
"90 55 OFFCURVE",
"154 -8 OFFCURVE",
"257 -8 CURVE SMOOTH"
);
},
{
closed = 1;
nodes = (
"167 13 OFFCURVE",
"112 67 OFFCURVE",
"112 155 CURVE SMOOTH",
"112 345 LINE SMOOTH",
"112 433 OFFCURVE",
"167 487 OFFCURVE",
"257 487 CURVE SMOOTH",
"347 487 OFFCURVE",
"402 433 OFFCURVE",
"402 345 CURVE SMOOTH",
"402 155 LINE SMOOTH",
"402 66 OFFCURVE",
"347 13 OFFCURVE",
"257 13 CURVE SMOOTH"
);
},
{
closed = 1;
nodes = (
"424 0 LINE",
"424 700 LINE",
"402 700 LINE",
"402 0 LINE"
);
}
);
width = 524;
},
{
layerId = "4E2227F3-52E4-4048-A8EE-327B486EF0A4";
paths = (
{
closed = 1;
nodes = (
"278 -5 OFFCURVE",
"345 72 OFFCURVE",
"345 177 CURVE SMOOTH",
"345 323 LINE SMOOTH",
"345 428 OFFCURVE",
"278 505 OFFCURVE",
"165 505 CURVE SMOOTH",
"85 505 OFFCURVE",
"18 466 OFFCURVE",
"18 359 CURVE SMOOTH",
"18 141 LINE SMOOTH",
"18 34 OFFCURVE",
"85 -5 OFFCURVE",
"165 -5 CURVE SMOOTH"
);
},
{
closed = 1;
nodes = (
"218 145 OFFCURVE",
"206 157 OFFCURVE",
"206 177 CURVE SMOOTH",
"206 323 LINE SMOOTH",
"206 343 OFFCURVE",
"218 355 OFFCURVE",
"235 355 CURVE SMOOTH",
"252 355 OFFCURVE",
"264 343 OFFCURVE",
"264 323 CURVE",
"264 177 LINE",
"264 157 OFFCURVE",
"252 145 OFFCURVE",
"235 145 CURVE SMOOTH"
);
},
{
closed = 1;
nodes = (
"452 1 LINE",
"452 701 LINE",
"264 701 LINE",
"264 0 LINE"
);
}
);
width = 472;
}
);
leftKerningGroup = d;
unicode = 0064;
},
{
glyphname = e;
lastChange = "2016-10-25 04:03:54 +0000";
layers = (
{
layerId = "262880E7-CFE1-4BDA-902E-E24798F3240A";
paths = (
{
closed = 1;
nodes = (
"346 -8 OFFCURVE",
"411 48 OFFCURVE",
"421 136 CURVE",
"421 138 LINE",
"399 138 LINE",
"399 136 LINE",
"391 61 OFFCURVE",
"334 13 OFFCURVE",
"251 13 CURVE SMOOTH",
"161 13 OFFCURVE",
"102 70 OFFCURVE",
"102 155 CURVE SMOOTH",
"102 345 LINE SMOOTH",
"102 430 OFFCURVE",
"161 487 OFFCURVE",
"251 487 CURVE SMOOTH",
"341 487 OFFCURVE",
"400 430 OFFCURVE",
"400 345 CURVE SMOOTH",
"400 267 LINE",
"97 267 LINE",
"97 246 LINE",
"422 246 LINE",
"422 342 LINE SMOOTH",
"422 442 OFFCURVE",
"354 508 OFFCURVE",
"251 508 CURVE SMOOTH",
"148 508 OFFCURVE",
"80 442 OFFCURVE",
"80 342 CURVE SMOOTH",
"80 158 LINE SMOOTH",
"80 58 OFFCURVE",
"148 -8 OFFCURVE",
"251 -8 CURVE SMOOTH"
);
}
);
width = 502;
},
{
layerId = "4E2227F3-52E4-4048-A8EE-327B486EF0A4";
paths = (
{
closed = 1;
nodes = (
"367 -5 OFFCURVE",
"450 71 OFFCURVE",
"450 184 CURVE SMOOTH",
"450 184 LINE",
"262 184 LINE",
"262 177 LINE SMOOTH",
"262 158 OFFCURVE",
"250 145 OFFCURVE",
"233 145 CURVE SMOOTH",
"216 145 OFFCURVE",
"204 158 OFFCURVE",
"204 177 CURVE SMOOTH",
"204 324 LINE SMOOTH",
"204 343 OFFCURVE",
"216 356 OFFCURVE",
"233 356 CURVE SMOOTH",
"250 356 OFFCURVE",
"262 343 OFFCURVE",
"262 324 CURVE SMOOTH",
"262 287 LINE",
"185 287 LINE",
"185 215 LINE",
"450 215 LINE",
"450 317 LINE SMOOTH",
"450 430 OFFCURVE",
"367 506 OFFCURVE",
"233 506 CURVE SMOOTH",
"99 506 OFFCURVE",
"16 430 OFFCURVE",
"16 317 CURVE SMOOTH",
"16 184 LINE SMOOTH",
"16 71 OFFCURVE",
"99 -5 OFFCURVE",
"233 -5 CURVE SMOOTH"
);
}
);
width = 466;
},
{
associatedMasterId = "4E2227F3-52E4-4048-A8EE-327B486EF0A4";
layerId = "F43F543C-68B1-49FC-928D-4F50CE8623A2";
name = "Medium{85,100}";
paths = (
{
closed = 1;
nodes = (
"354 -7 OFFCURVE",
"426 57 OFFCURVE",
"432 154 CURVE",
"432 155 LINE",
"348 155 LINE",
"348 151 LINE",
"343 97 OFFCURVE",
"302 63 OFFCURVE",
"244 63 CURVE SMOOTH",
"182 63 OFFCURVE",
"140 103 OFFCURVE",
"140 163 CURVE SMOOTH",
"140 337 LINE SMOOTH",
"140 397 OFFCURVE",
"182 438 OFFCURVE",
"244 438 CURVE SMOOTH",
"307 438 OFFCURVE",
"348 397 OFFCURVE",
"348 337 CURVE SMOOTH",
"348 285 LINE",
"130 285 LINE",
"130 209 LINE",
"433 209 LINE",
"433 333 LINE SMOOTH",
"433 437 OFFCURVE",
"359 507 OFFCURVE",
"244 507 CURVE SMOOTH",
"130 507 OFFCURVE",
"56 437 OFFCURVE",
"56 333 CURVE SMOOTH",
"56 168 LINE SMOOTH",
"56 63 OFFCURVE",
"130 -7 OFFCURVE",
"244 -7 CURVE SMOOTH"
);
}
);
width = 488;
}
);
leftKerningGroup = c;
rightKerningGroup = e;
unicode = 0065;
},
{
glyphname = f;
lastChange = "2016-10-25 07:17:29 +0000";
layers = (
{
layerId = "262880E7-CFE1-4BDA-902E-E24798F3240A";
paths = (
{
closed = 1;
nodes = (
"142 0 LINE",
"142 550 LINE SMOOTH",
"142 637 OFFCURVE",
"195 689 OFFCURVE",
"291 689 CURVE",
"291 710 LINE",
"181 710 OFFCURVE",
"120 650 OFFCURVE",
"120 550 CURVE SMOOTH",
"120 0 LINE"
);
},
{
closed = 1;
nodes = (
"261 479 LINE",
"261 500 LINE",
"41 500 LINE",
"41 479 LINE"
);
}
);
width = 321;
},
{
layerId = "4E2227F3-52E4-4048-A8EE-327B486EF0A4";
paths = (
{
closed = 1;
nodes = (
"242 0 LINE",
"242 532 LINE",
"242 552 OFFCURVE",
"264 558 OFFCURVE",
"286 558 CURVE",
"286 700 LINE",
"138 707 OFFCURVE",
"54 697 OFFCURVE",
"54 556 CURVE",
"54 0 LINE"
);
},
{
closed = 1;
nodes = (
"306 340 LINE",
"306 500 LINE",
"0 500 LINE",
"0 340 LINE"
);
}
);
width = 318;
}
);
leftKerningGroup = f;
unicode = 0066;
},
{
glyphname = g;
lastChange = "2016-10-25 07:17:00 +0000";
layers = (
{
layerId = "262880E7-CFE1-4BDA-902E-E24798F3240A";
paths = (
{
closed = 1;
nodes = (
"340 -5 OFFCURVE",
"403 58 OFFCURVE",
"403 161 CURVE SMOOTH",
"403 339 LINE SMOOTH",
"403 442 OFFCURVE",
"340 505 OFFCURVE",
"238 505 CURVE SMOOTH",
"135 505 OFFCURVE",
"72 442 OFFCURVE",
"72 339 CURVE SMOOTH",
"72 161 LINE SMOOTH",
"72 58 OFFCURVE",
"135 -5 OFFCURVE",
"238 -5 CURVE SMOOTH"
);
},
{
closed = 1;
nodes = (
"149 16 OFFCURVE",
"94 70 OFFCURVE",
"94 158 CURVE SMOOTH",
"94 342 LINE SMOOTH",
"94 430 OFFCURVE",
"149 484 OFFCURVE",
"239 484 CURVE SMOOTH",
"329 484 OFFCURVE",
"384 429 OFFCURVE",
"384 342 CURVE SMOOTH",
"384 158 LINE SMOOTH",
"384 70 OFFCURVE",
"329 16 OFFCURVE",
"239 16 CURVE SMOOTH"
);
},
{
closed = 1;
nodes = (
"333 -206 OFFCURVE",
"406 -140 OFFCURVE",
"406 0 CURVE SMOOTH",
"406 500 LINE",
"384 500 LINE",
"384 0 LINE SMOOTH",
"384 -126 OFFCURVE",
"318 -185 OFFCURVE",
"199 -181 CURVE",
"199 -202 LINE"
);
}
);
width = 502;
},
{
layerId = "4E2227F3-52E4-4048-A8EE-327B486EF0A4";
paths = (
{
closed = 1;
nodes = (
"288 1 OFFCURVE",
"345 98 OFFCURVE",
"345 203 CURVE SMOOTH",
"345 324 LINE SMOOTH",
"345 429 OFFCURVE",
"278 506 OFFCURVE",
"165 506 CURVE SMOOTH",
"85 506 OFFCURVE",
"18 467 OFFCURVE",
"18 360 CURVE SMOOTH",
"18 147 LINE SMOOTH",
"18 40 OFFCURVE",
"75 1 OFFCURVE",
"155 1 CURVE SMOOTH"
);
},
{
closed = 1;
nodes = (
"218 151 OFFCURVE",
"206 163 OFFCURVE",
"206 183 CURVE SMOOTH",
"206 323 LINE SMOOTH",
"206 343 OFFCURVE",
"218 355 OFFCURVE",
"235 355 CURVE SMOOTH",
"252 355 OFFCURVE",
"264 343 OFFCURVE",
"264 323 CURVE",
"264 183 LINE",
"264 163 OFFCURVE",
"252 151 OFFCURVE",
"235 151 CURVE SMOOTH"
);
},
{
closed = 1;
nodes = (
"395 -226 OFFCURVE",
"452 -115 OFFCURVE",
"452 34 CURVE SMOOTH",
"452 500 LINE",
"264 500 LINE",
"264 34 LINE SMOOTH",
"264 -14 OFFCURVE",
"247 -44 OFFCURVE",
"103 -40 CURVE",
"103 -207 LINE"
);
}
);
width = 472;
}
);
leftKerningGroup = g;
unicode = 0067;
},
{
glyphname = h;
lastChange = "2016-10-25 07:17:00 +0000";
layers = (
{
layerId = "262880E7-CFE1-4BDA-902E-E24798F3240A";
paths = (
{
closed = 1;
nodes = (
"416 0 LINE",
"416 344 LINE SMOOTH",
"416 443 OFFCURVE",
"357 504 OFFCURVE",
"262 504 CURVE SMOOTH",
"160 504 OFFCURVE",
"87 443 OFFCURVE",
"87 343 CURVE",
"106 343 LINE",
"106 430 OFFCURVE",
"171 483 OFFCURVE",
"260 483 CURVE SMOOTH",
"343 483 OFFCURVE",
"394 429 OFFCURVE",
"394 341 CURVE SMOOTH",
"394 0 LINE"
);
},
{
closed = 1;
nodes = (
"106 0 LINE",
"106 700 LINE",
"84 700 LINE",
"84 0 LINE"
);
}
);
width = 488;
},
{
layerId = "4E2227F3-52E4-4048-A8EE-327B486EF0A4";
paths = (
{
closed = 1;
nodes = (
"454 1 LINE",
"454 361 LINE SMOOTH",
"454 468 OFFCURVE",
"397 507 OFFCURVE",
"317 507 CURVE SMOOTH",
"204 507 OFFCURVE",
"139 430 OFFCURVE",
"139 325 CURVE",
"208 325 LINE",
"208 345 OFFCURVE",
"220 357 OFFCURVE",
"237 357 CURVE SMOOTH",
"254 357 OFFCURVE",
"266 345 OFFCURVE",
"266 325 CURVE SMOOTH",
"266 1 LINE"
);
},
{
closed = 1;
nodes = (
"208 1 LINE",
"208 700 LINE",
"20 700 LINE",
"20 1 LINE"
);
}
);
width = 472;
}
);
leftKerningGroup = b;
rightKerningGroup = h;
unicode = 0068;
},
{
glyphname = i;
lastChange = "2016-10-25 04:06:58 +0000";
layers = (
{
layerId = "262880E7-CFE1-4BDA-902E-E24798F3240A";
paths = (
{
closed = 1;
nodes = (
"122 0 LINE",
"122 500 LINE",
"100 500 LINE",
"100 0 LINE"
);
},
{
closed = 1;
nodes = (
"128 659 OFFCURVE",
"142 673 OFFCURVE",
"142 690 CURVE SMOOTH",
"142 706 OFFCURVE",
"128 720 OFFCURVE",
"111 720 CURVE SMOOTH",
"94 720 OFFCURVE",
"80 706 OFFCURVE",
"80 690 CURVE SMOOTH",
"80 673 OFFCURVE",
"94 659 OFFCURVE",
"111 659 CURVE SMOOTH"
);
}
);
width = 232;
},
{
layerId = "4E2227F3-52E4-4048-A8EE-327B486EF0A4";
paths = (
{
closed = 1;
nodes = (
"208 0 LINE",
"208 500 LINE",
"20 500 LINE",
"20 0 LINE"
);
},
{
closed = 1;
nodes = (
"177 534 OFFCURVE",
"219 576 OFFCURVE",
"219 639 CURVE SMOOTH",
"219 702 OFFCURVE",
"177 744 OFFCURVE",
"114 744 CURVE SMOOTH",
"51 744 OFFCURVE",
"9 702 OFFCURVE",
"9 639 CURVE SMOOTH",
"9 576 OFFCURVE",
"51 534 OFFCURVE",
"114 534 CURVE SMOOTH"
);
}
);
width = 230;
}
);
leftKerningGroup = i;
unicode = 0069;
},
{
glyphname = j;
lastChange = "2016-10-25 03:41:03 +0000";
layers = (
{
layerId = "262880E7-CFE1-4BDA-902E-E24798F3240A";
paths = (
{
closed = 1;
nodes = (
"66 -211 OFFCURVE",
"118 -159 OFFCURVE",
"118 -74 CURVE SMOOTH",
"118 500 LINE",
"96 500 LINE",
"96 -74 LINE SMOOTH",
"96 -146 OFFCURVE",
"53 -190 OFFCURVE",
"-18 -190 CURVE",
"-18 -211 LINE"
);
},
{
closed = 1;
nodes = (
"126 669 OFFCURVE",
"138 681 OFFCURVE",
"138 700 CURVE SMOOTH",
"138 719 OFFCURVE",
"126 730 OFFCURVE",
"107 730 CURVE SMOOTH",
"88 730 OFFCURVE",
"76 719 OFFCURVE",
"76 700 CURVE SMOOTH",
"76 681 OFFCURVE",
"88 669 OFFCURVE",
"107 669 CURVE SMOOTH"
);
}
);
width = 214;
},
{
layerId = "4E2227F3-52E4-4048-A8EE-327B486EF0A4";
paths = (
{
closed = 1;
nodes = (
"205 -210 OFFCURVE",
"212 -120 OFFCURVE",
"212 29 CURVE SMOOTH",
"212 495 LINE",
"24 495 LINE",
"24 29 LINE SMOOTH",
"24 -19 OFFCURVE",
"7 -49 OFFCURVE",
"-77 -41 CURVE",
"-77 -201 LINE"
);
},
{
closed = 1;
nodes = (
"180 534 OFFCURVE",
"223 581 OFFCURVE",
"223 639 CURVE SMOOTH",
"223 697 OFFCURVE",
"171 743 OFFCURVE",
"118 743 CURVE SMOOTH",
"65 743 OFFCURVE",
"13 697 OFFCURVE",
"13 639 CURVE SMOOTH",
"13 581 OFFCURVE",
"56 534 OFFCURVE",
"118 534 CURVE SMOOTH"
);
}
);
width = 232;
}
);
leftKerningGroup = j;
unicode = 006A;
},
{
glyphname = k;
lastChange = "2016-10-25 07:17:00 +0000";
layers = (
{
guideLines = (
{
angle = 180;
position = "{283, 0}";
showMeasurement = 1;
},
{
angle = 180;
position = "{229, 332}";
showMeasurement = 1;
}
);
layerId = "262880E7-CFE1-4BDA-902E-E24798F3240A";
paths = (
{
closed = 1;
nodes = (
"349 500 LINE",
"118 269 LINE",
"118 700 LINE",
"96 700 LINE",
"96 0 LINE",
"118 0 LINE",
"118 231 LINE",
"349 0 LINE",
"375 0 LINE",
"125 250 LINE",
"375 500 LINE"
);
}
);
width = 363;
},
{
layerId = "4E2227F3-52E4-4048-A8EE-327B486EF0A4";
paths = (
{
closed = 1;
nodes = (
"268 500 LINE",
"208 355 LINE",
"208 700 LINE",
"20 700 LINE",
"20 0 LINE",
"208 0 LINE",
"208 145 LINE",
"269 0 LINE",
"469 0 LINE",
"327 260 LINE",
"466 500 LINE"
);
}
);
width = 469;
},
{
associatedMasterId = "4E2227F3-52E4-4048-A8EE-327B486EF0A4";
layerId = "3F40B02A-8325-4017-AA07-0CC2F5060827";
name = "Medium{85,100}";
paths = (
{
closed = 1;
nodes = (
"299 500 LINE",
"150 297 LINE",
"150 700 LINE",
"66 700 LINE",
"66 0 LINE",
"150 0 LINE",
"150 206 LINE",
"299 0 LINE",
"404 0 LINE",
"211 250 LINE",
"404 500 LINE"
);
}
);
width = 396;
}
);
leftKerningGroup = b;
rightKerningGroup = k;
unicode = 006B;
},
{
glyphname = l;
lastChange = "2016-10-25 04:06:58 +0000";
layers = (
{
layerId = "262880E7-CFE1-4BDA-902E-E24798F3240A";
paths = (
{
closed = 1;
nodes = (
"112 0 LINE",
"112 700 LINE",
"90 700 LINE",
"90 0 LINE"
);
}
);
width = 202;
},
{
layerId = "4E2227F3-52E4-4048-A8EE-327B486EF0A4";
paths = (
{
closed = 1;
nodes = (
"206 0 LINE",
"206 700 LINE",
"18 700 LINE",
"18 0 LINE"
);
}
);
width = 224;
}
);
leftKerningGroup = l;
rightKerningGroup = l;
unicode = 006C;
},
{
glyphname = m;
lastChange = "2016-10-25 07:17:00 +0000";
layers = (
{
layerId = "262880E7-CFE1-4BDA-902E-E24798F3240A";
paths = (
{
closed = 1;
nodes = (
"706 0 LINE",
"706 344 LINE SMOOTH",
"706 443 OFFCURVE",
"647 504 OFFCURVE",
"552 504 CURVE SMOOTH",
"450 504 OFFCURVE",
"387 443 OFFCURVE",
"387 343 CURVE",
"406 343 LINE",
"405 428 OFFCURVE",
"460 483 OFFCURVE",
"550 483 CURVE SMOOTH",
"633 483 OFFCURVE",
"684 429 OFFCURVE",
"684 341 CURVE SMOOTH",
"684 0 LINE"
);
},
{
closed = 1;
nodes = (
"106 0 LINE",
"106 500 LINE",
"84 500 LINE",
"84 0 LINE"
);
},
{
closed = 1;
nodes = (
"406 0 LINE",
"406 344 LINE SMOOTH",
"406 443 OFFCURVE",
"347 504 OFFCURVE",
"252 504 CURVE SMOOTH",
"150 504 OFFCURVE",
"87 443 OFFCURVE",
"87 343 CURVE",
"106 343 LINE",
"106 430 OFFCURVE",
"161 483 OFFCURVE",
"250 483 CURVE SMOOTH",
"333 483 OFFCURVE",
"384 429 OFFCURVE",
"384 341 CURVE SMOOTH",
"384 0 LINE"
);
}
);
width = 778;
},
{
layerId = "4E2227F3-52E4-4048-A8EE-327B486EF0A4";
paths = (
{
closed = 1;
nodes = (
"700 1 LINE",
"700 358 LINE SMOOTH",
"700 465 OFFCURVE",
"643 504 OFFCURVE",
"563 504 CURVE SMOOTH",
"450 504 OFFCURVE",
"383 427 OFFCURVE",
"383 322 CURVE",
"454 322 LINE",
"454 342 OFFCURVE",
"466 354 OFFCURVE",
"483 354 CURVE SMOOTH",
"500 354 OFFCURVE",
"512 342 OFFCURVE",
"512 322 CURVE SMOOTH",
"512 1 LINE"
);
},
{
closed = 1;
nodes = (
"208 1 LINE",
"208 501 LINE",
"20 501 LINE",
"20 1 LINE"
);
},
{
closed = 1;
nodes = (
"454 1 LINE",
"454 358 LINE SMOOTH",
"454 465 OFFCURVE",
"397 504 OFFCURVE",
"317 504 CURVE SMOOTH",
"204 504 OFFCURVE",
"137 427 OFFCURVE",
"137 322 CURVE",
"208 322 LINE",
"208 342 OFFCURVE",
"220 354 OFFCURVE",
"237 354 CURVE SMOOTH",
"254 354 OFFCURVE",
"266 342 OFFCURVE",
"266 322 CURVE SMOOTH",
"266 1 LINE"
);
}
);
width = 718;
}
);
leftKerningGroup = m;
rightKerningGroup = h;
unicode = 006D;
},
{
glyphname = n;
lastChange = "2016-10-25 04:06:58 +0000";
layers = (
{
layerId = "262880E7-CFE1-4BDA-902E-E24798F3240A";
paths = (
{
closed = 1;
nodes = (
"432 0 LINE",
"432 347 LINE SMOOTH",
"432 446 OFFCURVE",
"373 507 OFFCURVE",
"278 507 CURVE SMOOTH",
"176 507 OFFCURVE",
"103 446 OFFCURVE",
"103 346 CURVE",
"122 346 LINE",
"122 433 OFFCURVE",
"187 486 OFFCURVE",
"276 486 CURVE SMOOTH",
"359 486 OFFCURVE",
"410 432 OFFCURVE",
"410 344 CURVE SMOOTH",
"410 0 LINE"
);
},
{
closed = 1;
nodes = (
"122 0 LINE",
"122 500 LINE",
"100 500 LINE",
"100 0 LINE"
);
}
);
width = 522;
},
{
layerId = "4E2227F3-52E4-4048-A8EE-327B486EF0A4";
paths = (
{
closed = 1;
nodes = (
"454 1 LINE",
"454 358 LINE SMOOTH",
"454 465 OFFCURVE",
"397 504 OFFCURVE",
"317 504 CURVE SMOOTH",
"204 504 OFFCURVE",
"137 427 OFFCURVE",
"137 322 CURVE",
"208 322 LINE",
"208 342 OFFCURVE",
"220 355 OFFCURVE",
"237 355 CURVE SMOOTH",
"254 355 OFFCURVE",
"266 342 OFFCURVE",
"266 322 CURVE SMOOTH",
"266 1 LINE"
);
},
{
closed = 1;
nodes = (
"208 1 LINE",
"208 501 LINE",
"20 501 LINE",
"20 1 LINE"
);
}
);
width = 472;
}
);
leftKerningGroup = m;
rightKerningGroup = h;
unicode = 006E;
},
{
glyphname = o;
lastChange = "2016-10-25 04:03:54 +0000";
layers = (
{
guideLines = (
{
angle = 180;
position = "{251, 250}";
showMeasurement = 1;
},
{
angle = 120;
position = "{251, 250}";
showMeasurement = 1;
},
{
angle = 60;
position = "{251, 250}";
showMeasurement = 1;
}
);
layerId = "262880E7-CFE1-4BDA-902E-E24798F3240A";
paths = (
{
closed = 1;
nodes = (
"354 -8 OFFCURVE",
"422 58 OFFCURVE",
"422 158 CURVE SMOOTH",
"422 342 LINE SMOOTH",
"422 442 OFFCURVE",
"354 508 OFFCURVE",
"251 508 CURVE SMOOTH",
"148 508 OFFCURVE",
"80 442 OFFCURVE",
"80 342 CURVE SMOOTH",
"80 158 LINE SMOOTH",
"80 58 OFFCURVE",
"148 -8 OFFCURVE",
"251 -8 CURVE SMOOTH"
);
},
{
closed = 1;
nodes = (
"162 13 OFFCURVE",
"102 70 OFFCURVE",
"102 155 CURVE SMOOTH",
"102 345 LINE SMOOTH",
"102 430 OFFCURVE",
"162 487 OFFCURVE",
"251 487 CURVE SMOOTH",
"340 487 OFFCURVE",
"400 430 OFFCURVE",
"400 345 CURVE SMOOTH",
"400 155 LINE SMOOTH",
"400 70 OFFCURVE",
"340 13 OFFCURVE",
"251 13 CURVE SMOOTH"
);
}
);
width = 502;
},
{
layerId = "4E2227F3-52E4-4048-A8EE-327B486EF0A4";
paths = (
{
closed = 1;
nodes = (
"374 -7 OFFCURVE",
"464 69 OFFCURVE",
"464 182 CURVE SMOOTH",
"464 318 LINE SMOOTH",
"464 431 OFFCURVE",
"374 507 OFFCURVE",
"240 507 CURVE SMOOTH",
"106 507 OFFCURVE",
"16 431 OFFCURVE",
"16 318 CURVE SMOOTH",
"16 182 LINE SMOOTH",
"16 69 OFFCURVE",
"106 -7 OFFCURVE",
"240 -7 CURVE SMOOTH"
);
},
{
closed = 1;
nodes = (
"223 143 OFFCURVE",
"211 156 OFFCURVE",
"211 175 CURVE SMOOTH",
"211 325 LINE SMOOTH",
"211 344 OFFCURVE",
"223 357 OFFCURVE",
"240 357 CURVE SMOOTH",
"257 357 OFFCURVE",
"269 344 OFFCURVE",
"269 325 CURVE SMOOTH",
"269 175 LINE SMOOTH",
"269 156 OFFCURVE",
"257 143 OFFCURVE",
"240 143 CURVE SMOOTH"
);
}
);
width = 480;
}
);
unicode = 006F;
},
{
glyphname = p;
lastChange = "2016-10-25 07:17:00 +0000";
layers = (
{
layerId = "262880E7-CFE1-4BDA-902E-E24798F3240A";
paths = (
{
closed = 1;
nodes = (
"355 -8 OFFCURVE",
"418 55 OFFCURVE",
"418 158 CURVE SMOOTH",
"418 342 LINE SMOOTH",
"418 445 OFFCURVE",
"355 508 OFFCURVE",
"252 508 CURVE SMOOTH",
"150 508 OFFCURVE",
"87 445 OFFCURVE",
"87 342 CURVE SMOOTH",
"87 158 LINE SMOOTH",
"87 55 OFFCURVE",
"154 -8 OFFCURVE",
"252 -8 CURVE SMOOTH"
);
},
{
closed = 1;
nodes = (
"106 -200 LINE",
"106 500 LINE",
"84 500 LINE",
"84 -200 LINE"
);
},
{
closed = 1;
nodes = (
"161 13 OFFCURVE",
"106 67 OFFCURVE",
"106 155 CURVE SMOOTH",
"106 345 LINE SMOOTH",
"106 434 OFFCURVE",
"161 487 OFFCURVE",
"251 487 CURVE SMOOTH",
"341 487 OFFCURVE",
"396 433 OFFCURVE",
"396 345 CURVE SMOOTH",
"396 155 LINE SMOOTH",
"396 67 OFFCURVE",
"341 13 OFFCURVE",
"251 13 CURVE SMOOTH"
);
}
);
width = 490;
},
{
layerId = "4E2227F3-52E4-4048-A8EE-327B486EF0A4";
paths = (
{
closed = 1;
nodes = (
"377 -4 OFFCURVE",
"454 35 OFFCURVE",
"454 142 CURVE SMOOTH",
"454 358 LINE SMOOTH",
"454 465 OFFCURVE",
"387 504 OFFCURVE",
"307 504 CURVE SMOOTH",
"194 504 OFFCURVE",
"127 427 OFFCURVE",
"127 322 CURVE SMOOTH",
"127 178 LINE SMOOTH",
"127 73 OFFCURVE",
"184 -4 OFFCURVE",
"297 -4 CURVE SMOOTH"
);
},
{
closed = 1;
nodes = (
"208 -201 LINE",
"208 499 LINE",
"20 499 LINE",
"20 -201 LINE"
);
},
{
closed = 1;
nodes = (
"220 146 OFFCURVE",
"208 158 OFFCURVE",
"208 178 CURVE",
"208 322 LINE",
"208 342 OFFCURVE",
"220 354 OFFCURVE",
"237 354 CURVE SMOOTH",
"254 354 OFFCURVE",
"266 342 OFFCURVE",
"266 322 CURVE SMOOTH",
"266 178 LINE SMOOTH",
"266 158 OFFCURVE",
"254 146 OFFCURVE",
"237 146 CURVE SMOOTH"
);
}
);
width = 472;
}
);
leftKerningGroup = m;
rightKerningGroup = b;
unicode = 0070;
},
{
glyphname = q;
lastChange = "2016-10-25 07:17:00 +0000";
layers = (
{
layerId = "262880E7-CFE1-4BDA-902E-E24798F3240A";
paths = (
{
closed = 1;
nodes = (
"338 -8 OFFCURVE",
"403 55 OFFCURVE",
"403 158 CURVE SMOOTH",
"403 342 LINE SMOOTH",
"403 445 OFFCURVE",
"340 508 OFFCURVE",
"238 508 CURVE SMOOTH",
"135 508 OFFCURVE",
"72 445 OFFCURVE",
"72 342 CURVE SMOOTH",
"72 158 LINE SMOOTH",
"72 55 OFFCURVE",
"135 -8 OFFCURVE",
"238 -8 CURVE SMOOTH"
);
},
{
closed = 1;
nodes = (
"149 13 OFFCURVE",
"94 67 OFFCURVE",
"94 155 CURVE SMOOTH",
"94 345 LINE SMOOTH",
"94 433 OFFCURVE",
"149 487 OFFCURVE",
"239 487 CURVE SMOOTH",
"329 487 OFFCURVE",
"384 434 OFFCURVE",
"384 345 CURVE SMOOTH",
"384 155 LINE SMOOTH",
"384 67 OFFCURVE",
"329 13 OFFCURVE",
"239 13 CURVE SMOOTH"
);
},
{
closed = 1;
nodes = (
"406 -200 LINE",
"406 500 LINE",
"384 500 LINE",
"384 -200 LINE"
);
}
);
width = 490;
},
{
layerId = "4E2227F3-52E4-4048-A8EE-327B486EF0A4";
paths = (
{
closed = 1;
nodes = (
"288 -4 OFFCURVE",
"345 73 OFFCURVE",
"345 178 CURVE SMOOTH",
"345 322 LINE SMOOTH",
"345 427 OFFCURVE",
"278 504 OFFCURVE",
"165 504 CURVE SMOOTH",
"85 504 OFFCURVE",
"18 465 OFFCURVE",
"18 358 CURVE SMOOTH",
"18 142 LINE SMOOTH",
"18 35 OFFCURVE",
"95 -4 OFFCURVE",
"175 -4 CURVE SMOOTH"
);
},
{
closed = 1;
nodes = (
"218 146 OFFCURVE",
"206 158 OFFCURVE",
"206 178 CURVE SMOOTH",
"206 322 LINE SMOOTH",
"206 342 OFFCURVE",
"218 354 OFFCURVE",
"235 354 CURVE SMOOTH",
"252 354 OFFCURVE",
"264 342 OFFCURVE",
"264 322 CURVE",
"264 178 LINE",
"264 158 OFFCURVE",
"252 146 OFFCURVE",
"235 146 CURVE SMOOTH"
);
},
{
closed = 1;
nodes = (
"452 -201 LINE",
"452 499 LINE",
"264 499 LINE",
"264 -201 LINE"
);
}
);
width = 472;
}
);
leftKerningGroup = d;
unicode = 0071;
},
{
glyphname = r;
lastChange = "2016-10-25 07:17:17 +0000";
layers = (
{
layerId = "262880E7-CFE1-4BDA-902E-E24798F3240A";
paths = (
{
closed = 1;
nodes = (
"132 341 LINE",
"132 429 OFFCURVE",
"189 479 OFFCURVE",
"271 479 CURVE SMOOTH",
"296 479 OFFCURVE",
"311 474 OFFCURVE",
"326 466 CURVE",
"337 489 LINE",
"320 498 OFFCURVE",
"302 504 OFFCURVE",
"272 504 CURVE SMOOTH",
"178 504 OFFCURVE",
"117 441 OFFCURVE",
"117 341 CURVE"
);
},
{
closed = 1;
nodes = (
"132 0 LINE",
"132 500 LINE",
"110 500 LINE",
"110 0 LINE"
);
}
);
width = 377;
},
{
layerId = "4E2227F3-52E4-4048-A8EE-327B486EF0A4";
paths = (
{
closed = 1;
nodes = (
"210 272 LINE",
"210 293 OFFCURVE",
"227 317 OFFCURVE",
"250 326 CURVE SMOOTH",
"276 336 OFFCURVE",
"313 332 OFFCURVE",
"323 324 CURVE",
"349 485 LINE",
"343 497 OFFCURVE",
"324 506 OFFCURVE",
"297 506 CURVE SMOOTH",
"191 506 OFFCURVE",
"159 371 OFFCURVE",
"159 272 CURVE"
);
},
{
closed = 1;
nodes = (
"210 1 LINE",
"210 501 LINE",
"22 501 LINE",
"22 1 LINE"
);
}
);
width = 349;
}
);
leftKerningGroup = m;
rightKerningGroup = r;
unicode = 0072;
},
{
glyphname = s;
lastChange = "2016-10-25 04:06:58 +0000";
layers = (
{
layerId = "262880E7-CFE1-4BDA-902E-E24798F3240A";
paths = (
{
closed = 1;
nodes = (
"346 -4 OFFCURVE",
"406 43 OFFCURVE",
"406 123 CURVE SMOOTH",
"406 211 OFFCURVE",
"333 231 OFFCURVE",
"242 263 CURVE SMOOTH",
"149 295 OFFCURVE",
"104 317 OFFCURVE",
"104 378 CURVE SMOOTH",
"104 443 OFFCURVE",
"155 483 OFFCURVE",
"241 483 CURVE SMOOTH",
"330 483 OFFCURVE",
"382 441 OFFCURVE",
"382 369 CURVE SMOOTH",
"382 344 LINE",
"404 344 LINE",
"404 369 LINE SMOOTH",
"404 454 OFFCURVE",
"344 504 OFFCURVE",
"242 504 CURVE SMOOTH",
"141 504 OFFCURVE",
"82 456 OFFCURVE",
"82 378 CURVE SMOOTH",
"82 295 OFFCURVE",
"149 273 OFFCURVE",
"238 242 CURVE SMOOTH",
"333 209 OFFCURVE",
"384 189 OFFCURVE",
"384 123 CURVE SMOOTH",
"384 57 OFFCURVE",
"332 17 OFFCURVE",
"244 17 CURVE SMOOTH",
"155 17 OFFCURVE",
"102 57 OFFCURVE",
"102 126 CURVE SMOOTH",
"102 157 LINE",
"80 157 LINE",
"80 126 LINE SMOOTH",
"80 44 OFFCURVE",
"141 -4 OFFCURVE",
"244 -4 CURVE SMOOTH"
);
}
);
width = 486;
},
{
layerId = "4E2227F3-52E4-4048-A8EE-327B486EF0A4";
paths = (
{
closed = 1;
nodes = (
"370 -8 OFFCURVE",
"451 34 OFFCURVE",
"451 145 CURVE SMOOTH",
"451 236 OFFCURVE",
"397 266 OFFCURVE",
"282 299 CURVE SMOOTH",
"237 312 OFFCURVE",
"204 319 OFFCURVE",
"204 336 CURVE SMOOTH",
"204 346 OFFCURVE",
"214 352 OFFCURVE",
"228 352 CURVE SMOOTH",
"243 352 OFFCURVE",
"254 344 OFFCURVE",
"254 329 CURVE SMOOTH",
"254 328 LINE",
"442 328 LINE",
"442 348 LINE SMOOTH",
"442 453 OFFCURVE",
"370 507 OFFCURVE",
"233 507 CURVE SMOOTH",
"89 507 OFFCURVE",
"18 447 OFFCURVE",
"18 344 CURVE SMOOTH",
"18 243 OFFCURVE",
"89 211 OFFCURVE",
"185 182 CURVE SMOOTH",
"232 168 OFFCURVE",
"253 163 OFFCURVE",
"253 149 CURVE SMOOTH",
"253 140 OFFCURVE",
"244 133 OFFCURVE",
"233 133 CURVE SMOOTH",
"220 133 OFFCURVE",
"207 143 OFFCURVE",
"207 159 CURVE SMOOTH",
"207 160 LINE",
"16 163 LINE",
"16 147 LINE",
"29 38 OFFCURVE",
"94 -8 OFFCURVE",
"235 -8 CURVE SMOOTH"
);
}
);
width = 467;
},
{
associatedMasterId = "4E2227F3-52E4-4048-A8EE-327B486EF0A4";
layerId = "441F9B22-0419-40BC-A36F-3C9E4C117ED8";
name = "Medium{85,100}";
paths = (
{
closed = 1;
nodes = (
"328 -4 OFFCURVE",
"396 46 OFFCURVE",
"396 132 CURVE SMOOTH",
"396 224 OFFCURVE",
"326 253 OFFCURVE",
"233 283 CURVE SMOOTH",
"152 309 OFFCURVE",
"114 318 OFFCURVE",
"114 363 CURVE SMOOTH",
"114 406 OFFCURVE",
"149 432 OFFCURVE",
"209 432 CURVE SMOOTH",
"272 432 OFFCURVE",
"309 402 OFFCURVE",
"309 350 CURVE SMOOTH",
"309 336 LINE",
"391 336 LINE",
"391 361 LINE SMOOTH",
"391 451 OFFCURVE",
"325 504 OFFCURVE",
"212 504 CURVE SMOOTH",
"99 504 OFFCURVE",
"32 453 OFFCURVE",
"32 367 CURVE SMOOTH",
"32 278 OFFCURVE",
"98 244 OFFCURVE",
"192 214 CURVE SMOOTH",
"267 190 OFFCURVE",
"310 187 OFFCURVE",
"310 138 CURVE SMOOTH",
"310 96 OFFCURVE",
"275 71 OFFCURVE",
"215 71 CURVE SMOOTH",
"149 71 OFFCURVE",
"110 100 OFFCURVE",
"110 150 CURVE SMOOTH",
"110 162 LINE",
"30 162 LINE",
"30 134 LINE SMOOTH",
"30 47 OFFCURVE",
"97 -4 OFFCURVE",
"211 -4 CURVE SMOOTH"
);
}
);
width = 426;
}
);
leftKerningGroup = s;
rightKerningGroup = s;
unicode = 0073;
},
{
glyphname = t;
lastChange = "2016-10-25 07:17:21 +0000";
layers = (
{
layerId = "262880E7-CFE1-4BDA-902E-E24798F3240A";
paths = (
{
closed = 1;
nodes = (
"248 0 LINE",
"248 21 LINE",
"206 21 LINE SMOOTH",
"125 21 OFFCURVE",
"102 57 OFFCURVE",
"102 153 CURVE SMOOTH",
"102 610 LINE",
"80 610 LINE",
"80 153 LINE SMOOTH",
"80 43 OFFCURVE",
"112 0 OFFCURVE",
"206 0 CURVE SMOOTH"
);
},
{
closed = 1;
nodes = (
"234 479 LINE",
"234 500 LINE",
"6 500 LINE",
"6 479 LINE"
);
}
);
width = 278;
},
{
layerId = "4E2227F3-52E4-4048-A8EE-327B486EF0A4";
paths = (
{
closed = 1;
nodes = (
"309 0 LINE",
"309 169 LINE",
"298 169 LINE",
"243 169 OFFCURVE",
"238 180 OFFCURVE",
"238 229 CURVE SMOOTH",
"242 646 LINE",
"54 646 LINE",
"50 156 LINE SMOOTH",
"49 5 OFFCURVE",
"107 -14 OFFCURVE",
"288 0 CURVE"
);
},
{
closed = 1;
nodes = (
"318 340 LINE",
"318 500 LINE",
"0 500 LINE",
"0 340 LINE"
);
}
);
width = 324;
}
);
leftKerningGroup = t;
rightKerningGroup = t;
unicode = 0074;
},
{
glyphname = u;
lastChange = "2016-10-25 04:06:58 +0000";
layers = (
{
layerId = "262880E7-CFE1-4BDA-902E-E24798F3240A";
paths = (
{
closed = 1;
nodes = (
"336 -4 OFFCURVE",
"399 57 OFFCURVE",
"399 157 CURVE",
"380 157 LINE",
"380 70 OFFCURVE",
"325 17 OFFCURVE",
"236 17 CURVE SMOOTH",
"153 17 OFFCURVE",
"102 71 OFFCURVE",
"102 159 CURVE SMOOTH",
"102 500 LINE",
"80 500 LINE",
"80 156 LINE SMOOTH",
"80 57 OFFCURVE",
"139 -4 OFFCURVE",
"234 -4 CURVE SMOOTH"
);
},
{
closed = 1;
nodes = (
"402 4 LINE",
"402 500 LINE",
"380 500 LINE",
"380 4 LINE"
);
}
);
width = 502;
},
{
layerId = "4E2227F3-52E4-4048-A8EE-327B486EF0A4";
paths = (
{
closed = 1;
nodes = (
"248 -5 OFFCURVE",
"341 70 OFFCURVE",
"341 175 CURVE",
"262 175 LINE",
"262 155 OFFCURVE",
"250 143 OFFCURVE",
"233 143 CURVE SMOOTH",
"216 143 OFFCURVE",
"204 155 OFFCURVE",
"204 175 CURVE SMOOTH",
"204 499 LINE",
"16 499 LINE",
"16 155 LINE SMOOTH",
"16 44 OFFCURVE",
"58 -5 OFFCURVE",
"143 -5 CURVE SMOOTH"
);
},
{
closed = 1;
nodes = (
"450 -1 LINE",
"450 499 LINE",
"262 499 LINE",
"262 -1 LINE"
);
}
);
width = 470;
}
);
leftKerningGroup = u;
unicode = 0075;
},
{
glyphname = v;
lastChange = "2016-10-25 04:03:54 +0000";
layers = (
{
layerId = "262880E7-CFE1-4BDA-902E-E24798F3240A";
paths = (
{
closed = 1;
nodes = (
"204 0 LINE",
"376 500 LINE",
"351 500 LINE",
"193 33 LINE",
"35 500 LINE",
"10 500 LINE",
"182 0 LINE"
);
}
);
width = 386;
},
{
layerId = "4E2227F3-52E4-4048-A8EE-327B486EF0A4";
paths = (
{
closed = 1;
nodes = (
"331 -2 LINE",
"465 498 LINE",
"279 500 LINE",
"235 232 LINE",
"191 500 LINE",
"2 500 LINE",
"136 0 LINE"
);
}
);
width = 467;
}
);
unicode = 0076;
},
{
glyphname = w;
lastChange = "2016-10-25 04:03:54 +0000";
layers = (
{
layerId = "262880E7-CFE1-4BDA-902E-E24798F3240A";
paths = (
{
closed = 1;
nodes = (
"175 0 LINE",
"304 461 LINE",
"434 0 LINE",
"456 0 LINE",
"598 500 LINE",
"576 500 LINE",
"446 27 LINE",
"316 500 LINE",
"295 500 LINE",
"165 27 LINE",
"35 500 LINE",
"10 500 LINE",
"153 0 LINE"
);
}
);
width = 608;
},
{
layerId = "4E2227F3-52E4-4048-A8EE-327B486EF0A4";
paths = (
{
closed = 1;
nodes = (
"291 -2 LINE",
"332 211 LINE",
"373 0 LINE",
"533 -2 LINE",
"667 498 LINE",
"481 500 LINE",
"437 232 LINE",
"393 500 LINE",
"279 500 LINE",
"235 232 LINE",
"191 500 LINE",
"2 500 LINE",
"136 0 LINE"
);
}
);
width = 669;
}
);
leftKerningGroup = w;
rightKerningGroup = w;
unicode = 0077;
},
{
glyphname = x;
lastChange = "2016-10-25 03:41:03 +0000";
layers = (
{
layerId = "262880E7-CFE1-4BDA-902E-E24798F3240A";
paths = (
{
closed = 1;
nodes = (
"25 0 LINE",
"184 233 LINE",
"343 0 LINE",
"368 0 LINE",
"195 250 LINE",
"368 500 LINE",
"343 500 LINE",
"184 267 LINE",
"25 500 LINE",
"0 500 LINE",
"173 250 LINE",
"0 0 LINE"
);
}
);
width = 368;
},
{
layerId = "4E2227F3-52E4-4048-A8EE-327B486EF0A4";
paths = (
{
closed = 1;
nodes = (
"200 0 LINE",
"235 98 LINE",
"270 0 LINE",
"468 0 LINE",
"322 250 LINE",
"468 500 LINE",
"270 500 LINE",
"235 408 LINE",
"200 500 LINE",
"2 500 LINE",
"148 250 LINE",
"2 0 LINE"
);
}
);
width = 470;
}
);
unicode = 0078;
},
{
glyphname = y;
lastChange = "2016-10-25 03:41:03 +0000";
layers = (
{
layerId = "262880E7-CFE1-4BDA-902E-E24798F3240A";
paths = (
{
closed = 1;
nodes = (
"126 -200 OFFCURVE",
"151 -172 OFFCURVE",
"188 -62 CURVE SMOOTH",
"378 500 LINE",
"356 500 LINE",
"199 27 LINE",
"36 500 LINE",
"14 500 LINE",
"189 0 LINE",
"171 -56 LINE SMOOTH",
"139 -157 OFFCURVE",
"114 -179 OFFCURVE",
"51 -179 CURVE",
"51 -200 LINE"
);
}
);
width = 392;
},
{
layerId = "4E2227F3-52E4-4048-A8EE-327B486EF0A4";
paths = (
{
closed = 1;
nodes = (
"255 -198 OFFCURVE",
"287 -143 OFFCURVE",
"329 -2 CURVE",
"465 498 LINE",
"279 500 LINE",
"235 232 LINE",
"191 500 LINE",
"2 500 LINE",
"136 0 LINE",
"136 -2 LINE SMOOTH",
"136 -23 OFFCURVE",
"137 -54 OFFCURVE",
"54 -52 CURVE",
"54 -198 LINE"
);
}
);
width = 467;
}
);
unicode = 0079;
},
{
glyphname = z;
lastChange = "2016-10-25 03:41:03 +0000";
layers = (
{
layerId = "262880E7-CFE1-4BDA-902E-E24798F3240A";
paths = (
{
closed = 1;
nodes = (
"346 0 LINE",
"346 21 LINE",
"36 21 LINE",
"356 479 LINE",
"356 500 LINE",
"16 500 LINE",
"16 479 LINE",
"332 479 LINE",
"12 21 LINE",
"12 0 LINE"
);
}
);
width = 368;
},
{
layerId = "4E2227F3-52E4-4048-A8EE-327B486EF0A4";
paths = (
{
closed = 1;
nodes = (
"365 0 LINE",
"365 150 LINE",
"184 150 LINE",
"372 351 LINE",
"372 500 LINE",
"17 500 LINE",
"17 351 LINE",
"188 351 LINE",
"2 150 LINE",
"2 0 LINE"
);
}
);
width = 376;
}
);
leftKerningGroup = z;
unicode = 007A;
},
{
glyphname = zero;
lastChange = "2016-10-25 03:41:03 +0000";
layers = (
{
layerId = "262880E7-CFE1-4BDA-902E-E24798F3240A";
paths = (
{
closed = 1;
nodes = (
"374 -9 OFFCURVE",
"429 45 OFFCURVE",
"429 150 CURVE SMOOTH",
"429 550 LINE SMOOTH",
"429 655 OFFCURVE",
"374 709 OFFCURVE",
"269 709 CURVE SMOOTH",
"164 709 OFFCURVE",
"109 655 OFFCURVE",
"109 550 CURVE SMOOTH",
"109 150 LINE SMOOTH",
"109 45 OFFCURVE",
"164 -9 OFFCURVE",
"269 -9 CURVE SMOOTH"
);
},
{
closed = 1;
nodes = (
"178 11 OFFCURVE",
"131 58 OFFCURVE",
"131 150 CURVE SMOOTH",
"131 550 LINE SMOOTH",
"131 642 OFFCURVE",
"178 690 OFFCURVE",
"269 690 CURVE SMOOTH",
"360 690 OFFCURVE",
"407 642 OFFCURVE",
"407 550 CURVE SMOOTH",
"407 150 LINE SMOOTH",
"407 58 OFFCURVE",
"360 11 OFFCURVE",
"269 11 CURVE SMOOTH"
);
}
);
width = 538;
},
{
layerId = "4E2227F3-52E4-4048-A8EE-327B486EF0A4";
paths = (
{
closed = 1;
nodes = (
"405 -12 OFFCURVE",
"494 65 OFFCURVE",
"494 190 CURVE SMOOTH",
"494 509 LINE SMOOTH",
"494 635 OFFCURVE",
"405 712 OFFCURVE",
"260 712 CURVE SMOOTH",
"115 712 OFFCURVE",
"26 635 OFFCURVE",
"26 509 CURVE SMOOTH",
"26 191 LINE SMOOTH",
"26 65 OFFCURVE",
"115 -12 OFFCURVE",
"260 -12 CURVE SMOOTH"
);
},
{
closed = 1;
nodes = (
"231 148 OFFCURVE",
"214 167 OFFCURVE",
"214 199 CURVE SMOOTH",
"214 501 LINE SMOOTH",
"214 533 OFFCURVE",
"231 552 OFFCURVE",
"260 552 CURVE SMOOTH",
"289 552 OFFCURVE",
"306 533 OFFCURVE",
"306 501 CURVE SMOOTH",
"306 199 LINE SMOOTH",
"306 167 OFFCURVE",
"289 148 OFFCURVE",
"260 148 CURVE SMOOTH"
);
}
);
width = 538;
}
);
unicode = 0030;
},
{
glyphname = one;
lastChange = "2016-10-25 03:41:03 +0000";
layers = (
{
layerId = "262880E7-CFE1-4BDA-902E-E24798F3240A";
paths = (
{
closed = 1;
nodes = (
"142 0 LINE",
"142 700 LINE",
"120 700 LINE",
"120 0 LINE"
);
},
{
closed = 1;
nodes = (
"79 647 LINE",
"120 679 LINE",
"120 700 LINE",
"79 668 LINE"
);
}
);
width = 260;
},
{
layerId = "4E2227F3-52E4-4048-A8EE-327B486EF0A4";
paths = (
{
closed = 1;
nodes = (
"242 0 LINE",
"242 700 LINE",
"54 700 LINE",
"54 0 LINE"
);
},
{
closed = 1;
nodes = (
"12 529 LINE",
"54 529 LINE",
"54 700 LINE",
"12 673 LINE"
);
}
);
width = 254;
}
);
unicode = 0031;
},
{
glyphname = two;
lastChange = "2016-10-25 03:41:03 +0000";
layers = (
{
layerId = "262880E7-CFE1-4BDA-902E-E24798F3240A";
paths = (
{
closed = 1;
nodes = (
"375 0 LINE",
"375 21 LINE",
"72 21 LINE",
"312 364 LINE SMOOTH",
"350 419 OFFCURVE",
"374 470 OFFCURVE",
"374 530 CURVE SMOOTH",
"374 615 OFFCURVE",
"325 705 OFFCURVE",
"211 705 CURVE SMOOTH",
"106 705 OFFCURVE",
"43 635 OFFCURVE",
"43 500 CURVE",
"43 479 LINE",
"65 479 LINE",
"65 498 LINE SMOOTH",
"65 616 OFFCURVE",
"119 684 OFFCURVE",
"210 684 CURVE SMOOTH",
"298 684 OFFCURVE",
"352 620 OFFCURVE",
"352 528 CURVE SMOOTH",
"352 476 OFFCURVE",
"335 434 OFFCURVE",
"307 395 CURVE SMOOTH",
"43 21 LINE",
"43 0 LINE"
);
}
);
width = 423;
},
{
layerId = "4E2227F3-52E4-4048-A8EE-327B486EF0A4";
width = 423;
}
);
unicode = 0032;
},
{
glyphname = eight;
lastChange = "2016-10-25 03:41:03 +0000";
layers = (
{
layerId = "262880E7-CFE1-4BDA-902E-E24798F3240A";
paths = (
{
closed = 1;
nodes = (
"365 -18 OFFCURVE",
"420 36 OFFCURVE",
"420 141 CURVE SMOOTH",
"420 225 LINE SMOOTH",
"420 330 OFFCURVE",
"365 384 OFFCURVE",
"260 384 CURVE SMOOTH",
"155 384 OFFCURVE",
"100 330 OFFCURVE",
"100 225 CURVE SMOOTH",
"100 141 LINE SMOOTH",
"100 36 OFFCURVE",
"155 -18 OFFCURVE",
"260 -18 CURVE SMOOTH"
);
},
{
closed = 1;
nodes = (
"169 2 OFFCURVE",
"122 49 OFFCURVE",
"122 141 CURVE SMOOTH",
"122 225 LINE SMOOTH",
"122 317 OFFCURVE",
"169 365 OFFCURVE",
"260 365 CURVE SMOOTH",
"351 365 OFFCURVE",
"398 317 OFFCURVE",
"398 225 CURVE SMOOTH",
"398 141 LINE SMOOTH",
"398 49 OFFCURVE",
"351 2 OFFCURVE",
"260 2 CURVE SMOOTH"
);
},
{
closed = 1;
nodes = (
"365 364 OFFCURVE",
"420 418 OFFCURVE",
"420 523 CURVE SMOOTH",
"420 548 LINE SMOOTH",
"420 653 OFFCURVE",
"365 707 OFFCURVE",
"260 707 CURVE SMOOTH",
"155 707 OFFCURVE",
"100 653 OFFCURVE",
"100 548 CURVE SMOOTH",
"100 523 LINE SMOOTH",
"100 418 OFFCURVE",
"155 364 OFFCURVE",
"260 364 CURVE SMOOTH"
);
},
{
closed = 1;
nodes = (
"169 384 OFFCURVE",
"122 431 OFFCURVE",
"122 523 CURVE SMOOTH",
"122 548 LINE SMOOTH",
"122 640 OFFCURVE",
"169 688 OFFCURVE",
"260 688 CURVE SMOOTH",
"351 688 OFFCURVE",
"398 640 OFFCURVE",
"398 548 CURVE SMOOTH",
"398 523 LINE SMOOTH",
"398 431 OFFCURVE",
"351 384 OFFCURVE",
"260 384 CURVE SMOOTH"
);
}
);
width = 520;
},
{
layerId = "4E2227F3-52E4-4048-A8EE-327B486EF0A4";
paths = (
{
closed = 1;
nodes = (
"405 -8 OFFCURVE",
"494 69 OFFCURVE",
"494 194 CURVE SMOOTH",
"494 241 LINE SMOOTH",
"494 427 OFFCURVE",
"300 403 OFFCURVE",
"260 403 CURVE SMOOTH",
"220 403 OFFCURVE",
"26 427 OFFCURVE",
"26 241 CURVE SMOOTH",
"26 195 LINE SMOOTH",
"26 69 OFFCURVE",
"115 -8 OFFCURVE",
"260 -8 CURVE SMOOTH"
);
},
{
closed = 1;
nodes = (
"231 152 OFFCURVE",
"214 171 OFFCURVE",
"214 203 CURVE SMOOTH",
"214 239 LINE SMOOTH",
"214 271 OFFCURVE",
"231 290 OFFCURVE",
"260 290 CURVE",
"289 290 OFFCURVE",
"306 271 OFFCURVE",
"306 239 CURVE SMOOTH",
"306 203 LINE SMOOTH",
"306 171 OFFCURVE",
"289 152 OFFCURVE",
"260 152 CURVE SMOOTH"
);
},
{
closed = 1;
nodes = (
"365 294 OFFCURVE",
"494 339 OFFCURVE",
"494 486 CURVE SMOOTH",
"494 525 LINE SMOOTH",
"494 650 OFFCURVE",
"406 708 OFFCURVE",
"260 708 CURVE SMOOTH",
"115 708 OFFCURVE",
"26 651 OFFCURVE",
"26 525 CURVE SMOOTH",
"26 487 LINE SMOOTH",
"26 339 OFFCURVE",
"145 294 OFFCURVE",
"260 294 CURVE SMOOTH"
);
},
{
closed = 1;
nodes = (
"231 413 OFFCURVE",
"214 432 OFFCURVE",
"214 464 CURVE SMOOTH",
"214 497 LINE SMOOTH",
"214 529 OFFCURVE",
"231 548 OFFCURVE",
"260 548 CURVE SMOOTH",
"289 548 OFFCURVE",
"306 529 OFFCURVE",
"306 497 CURVE SMOOTH",
"306 464 LINE SMOOTH",
"306 432 OFFCURVE",
"289 413 OFFCURVE",
"260 413 CURVE SMOOTH"
);
}
);
width = 520;
}
);
unicode = 0038;
},
{
glyphname = colon;
lastChange = "2016-10-25 03:41:03 +0000";
layers = (
{
layerId = "262880E7-CFE1-4BDA-902E-E24798F3240A";
paths = (
{
closed = 1;
nodes = (
"181 350 OFFCURVE",
"200 368 OFFCURVE",
"200 391 CURVE SMOOTH",
"200 413 OFFCURVE",
"181 431 OFFCURVE",
"159 431 CURVE SMOOTH",
"137 431 OFFCURVE",
"118 413 OFFCURVE",
"118 391 CURVE SMOOTH",
"118 368 OFFCURVE",
"136 350 OFFCURVE",
"159 350 CURVE SMOOTH"
);
},
{
closed = 1;
nodes = (
"181 7 OFFCURVE",
"200 25 OFFCURVE",
"200 48 CURVE SMOOTH",
"200 70 OFFCURVE",
"181 88 OFFCURVE",
"159 88 CURVE SMOOTH",
"137 88 OFFCURVE",
"118 70 OFFCURVE",
"118 48 CURVE SMOOTH",
"118 25 OFFCURVE",
"136 7 OFFCURVE",
"159 7 CURVE SMOOTH"
);
}
);
width = 318;
},
{
layerId = "4E2227F3-52E4-4048-A8EE-327B486EF0A4";
paths = (
{
closed = 1;
nodes = (
"223 291 OFFCURVE",
"266 338 OFFCURVE",
"266 396 CURVE SMOOTH",
"266 454 OFFCURVE",
"214 500 OFFCURVE",
"161 500 CURVE SMOOTH",
"108 500 OFFCURVE",
"56 454 OFFCURVE",
"56 396 CURVE SMOOTH",
"56 338 OFFCURVE",
"99 291 OFFCURVE",
"161 291 CURVE SMOOTH"
);
},
{
closed = 1;
nodes = (
"223 0 OFFCURVE",
"266 47 OFFCURVE",
"266 105 CURVE SMOOTH",
"266 163 OFFCURVE",
"214 209 OFFCURVE",
"161 209 CURVE SMOOTH",
"108 209 OFFCURVE",
"56 163 OFFCURVE",
"56 105 CURVE SMOOTH",
"56 47 OFFCURVE",
"99 0 OFFCURVE",
"161 0 CURVE SMOOTH"
);
}
);
width = 318;
}
);
leftKerningGroup = colon;
unicode = 003A;
},
{
glyphname = comma;
lastChange = "2016-10-25 03:41:03 +0000";
layers = (
{
layerId = "262880E7-CFE1-4BDA-902E-E24798F3240A";
paths = (
{
closed = 1;
nodes = (
"132 -66 LINE",
"187 153 LINE",
"165 153 LINE",
"110 -66 LINE"
);
}
);
width = 298;
},
{
layerId = "4E2227F3-52E4-4048-A8EE-327B486EF0A4";
paths = (
{
closed = 1;
nodes = (
"146 -111 LINE",
"209 160 LINE",
"41 160 LINE",
"24 -111 LINE"
);
}
);
width = 233;
}
);
leftKerningGroup = comma;
rightKerningGroup = comma;
unicode = 002C;
},
{
glyphname = exclam;
lastChange = "2016-10-25 03:41:03 +0000";
layers = (
{
layerId = "262880E7-CFE1-4BDA-902E-E24798F3240A";
paths = (
{
closed = 1;
nodes = (
"163 220 LINE",
"163 700 LINE",
"141 700 LINE",
"141 220 LINE"
);
},
{
closed = 1;
nodes = (
"171 5 OFFCURVE",
"190 23 OFFCURVE",
"190 46 CURVE SMOOTH",
"190 68 OFFCURVE",
"171 86 OFFCURVE",
"149 86 CURVE SMOOTH",
"127 86 OFFCURVE",
"108 68 OFFCURVE",
"108 46 CURVE SMOOTH",
"108 23 OFFCURVE",
"126 5 OFFCURVE",
"149 5 CURVE SMOOTH"
);
}
);
width = 302;
},
{
layerId = "4E2227F3-52E4-4048-A8EE-327B486EF0A4";
paths = (
{
closed = 1;
nodes = (
"225 248 LINE",
"245 700 LINE",
"57 700 LINE",
"77 248 LINE"
);
},
{
closed = 1;
nodes = (
"212 0 OFFCURVE",
"255 47 OFFCURVE",
"255 105 CURVE SMOOTH",
"255 163 OFFCURVE",
"203 209 OFFCURVE",
"150 209 CURVE SMOOTH",
"97 209 OFFCURVE",
"45 163 OFFCURVE",
"45 105 CURVE SMOOTH",
"45 47 OFFCURVE",
"88 0 OFFCURVE",
"150 0 CURVE SMOOTH"
);
}
);
width = 302;
}
);
unicode = 0021;
},
{
glyphname = period;
lastChange = "2016-10-25 03:41:03 +0000";
layers = (
{
layerId = "262880E7-CFE1-4BDA-902E-E24798F3240A";
paths = (
{
closed = 1;
nodes = (
"181 7 OFFCURVE",
"200 25 OFFCURVE",
"200 48 CURVE SMOOTH",
"200 70 OFFCURVE",
"181 88 OFFCURVE",
"159 88 CURVE SMOOTH",
"137 88 OFFCURVE",
"118 70 OFFCURVE",
"118 48 CURVE SMOOTH",
"118 25 OFFCURVE",
"136 7 OFFCURVE",
"159 7 CURVE SMOOTH"
);
}
);
width = 320;
},
{
layerId = "4E2227F3-52E4-4048-A8EE-327B486EF0A4";
paths = (
{
closed = 1;
nodes = (
"223 0 OFFCURVE",
"266 47 OFFCURVE",
"266 105 CURVE SMOOTH",
"266 163 OFFCURVE",
"214 209 OFFCURVE",
"161 209 CURVE SMOOTH",
"108 209 OFFCURVE",
"56 163 OFFCURVE",
"56 105 CURVE SMOOTH",
"56 47 OFFCURVE",
"99 0 OFFCURVE",
"161 0 CURVE SMOOTH"
);
}
);
width = 320;
}
);
leftKerningGroup = comma;
rightKerningGroup = comma;
unicode = 002E;
},
{
glyphname = question;
lastChange = "2016-10-25 03:41:03 +0000";
layers = (
{
layerId = "262880E7-CFE1-4BDA-902E-E24798F3240A";
paths = (
{
closed = 1;
nodes = (
"227 239 LINE",
"197 243 OFFCURVE",
"182 254 OFFCURVE",
"182 275 CURVE SMOOTH",
"182 346 OFFCURVE",
"363 378 OFFCURVE",
"363 546 CURVE SMOOTH",
"363 645 OFFCURVE",
"300 709 OFFCURVE",
"206 709 CURVE SMOOTH",
"111 709 OFFCURVE",
"47 645 OFFCURVE",
"47 550 CURVE SMOOTH",
"47 500 LINE",
"69 500 LINE",
"69 550 LINE SMOOTH",
"69 633 OFFCURVE",
"124 688 OFFCURVE",
"206 688 CURVE SMOOTH",
"287 688 OFFCURVE",
"341 633 OFFCURVE",
"341 549 CURVE SMOOTH",
"341 395 OFFCURVE",
"158 364 OFFCURVE",
"158 271 CURVE SMOOTH",
"158 235 OFFCURVE",
"186 213 OFFCURVE",
"227 215 CURVE"
);
},
{
closed = 1;
nodes = (
"213 5 OFFCURVE",
"232 23 OFFCURVE",
"232 46 CURVE SMOOTH",
"232 68 OFFCURVE",
"213 86 OFFCURVE",
"191 86 CURVE SMOOTH",
"169 86 OFFCURVE",
"150 68 OFFCURVE",
"150 46 CURVE SMOOTH",
"150 23 OFFCURVE",
"168 5 OFFCURVE",
"191 5 CURVE SMOOTH"
);
}
);
width = 413;
},
{
layerId = "4E2227F3-52E4-4048-A8EE-327B486EF0A4";
paths = (
{
closed = 1;
nodes = (
"390 226 LINE",
"391 244 OFFCURVE",
"391 243 OFFCURVE",
"391 275 CURVE SMOOTH",
"391 336 OFFCURVE",
"551 339 OFFCURVE",
"551 504 CURVE SMOOTH",
"551 627 OFFCURVE",
"461 710 OFFCURVE",
"320 710 CURVE SMOOTH",
"174 710 OFFCURVE",
"74 620 OFFCURVE",
"74 488 CURVE SMOOTH",
"74 478 LINE",
"262 469 LINE",
"262 488 LINE SMOOTH",
"262 517 OFFCURVE",
"281 539 OFFCURVE",
"315 539 CURVE SMOOTH",
"344 539 OFFCURVE",
"361 522 OFFCURVE",
"361 493 CURVE SMOOTH",
"361 407 OFFCURVE",
"205 434 OFFCURVE",
"205 280 CURVE SMOOTH",
"205 226 OFFCURVE",
"205 251 OFFCURVE",
"205 226 CURVE"
);
},
{
closed = 1;
nodes = (
"359 -5 OFFCURVE",
"404 38 OFFCURVE",
"404 91 CURVE SMOOTH",
"404 144 OFFCURVE",
"358 187 OFFCURVE",
"306 187 CURVE SMOOTH",
"254 187 OFFCURVE",
"209 144 OFFCURVE",
"209 90 CURVE SMOOTH",
"209 38 OFFCURVE",
"252 -5 OFFCURVE",
"305 -5 CURVE SMOOTH"
);
}
);
width = 601;
},
{
associatedMasterId = "4E2227F3-52E4-4048-A8EE-327B486EF0A4";
layerId = "B1339A08-5FBB-4B67-970F-755DF9380AA6";
name = "Demibold{110,100}";
paths = (
{
closed = 1;
nodes = (
"316 270 LINE",
"294 264 OFFCURVE",
"278 272 OFFCURVE",
"278 290 CURVE SMOOTH",
"278 349 OFFCURVE",
"462 356 OFFCURVE",
"462 525 CURVE SMOOTH",
"462 635 OFFCURVE",
"385 710 OFFCURVE",
"266 710 CURVE SMOOTH",
"145 710 OFFCURVE",
"61 632 OFFCURVE",
"61 517 CURVE SMOOTH",
"61 488 LINE",
"171 484 LINE",
"171 517 LINE SMOOTH",
"171 572 OFFCURVE",
"207 609 OFFCURVE",
"263 609 CURVE SMOOTH",
"317 609 OFFCURVE",
"352 574 OFFCURVE",
"352 520 CURVE SMOOTH",
"352 397 OFFCURVE",
"168 407 OFFCURVE",
"168 284 CURVE SMOOTH",
"168 223 OFFCURVE",
"214 182 OFFCURVE",
"313 192 CURVE"
);
},
{
closed = 1;
nodes = (
"290 0 OFFCURVE",
"323 31 OFFCURVE",
"323 70 CURVE SMOOTH",
"323 108 OFFCURVE",
"290 139 OFFCURVE",
"252 139 CURVE SMOOTH",
"214 139 OFFCURVE",
"181 109 OFFCURVE",
"181 69 CURVE SMOOTH",
"181 31 OFFCURVE",
"212 0 OFFCURVE",
"251 0 CURVE SMOOTH"
);
}
);
width = 512;
},
{
associatedMasterId = "4E2227F3-52E4-4048-A8EE-327B486EF0A4";
layerId = "C14457C2-F276-4340-890D-53E24F0C1826";
name = "Bold{135,100}";
paths = (
{
closed = 1;
nodes = (
"337 251 LINE",
"324 252 OFFCURVE",
"314 256 OFFCURVE",
"314 278 CURVE SMOOTH",
"314 343 OFFCURVE",
"491 350 OFFCURVE",
"491 518 CURVE SMOOTH",
"491 632 OFFCURVE",
"409 710 OFFCURVE",
"283 710 CURVE SMOOTH",
"154 710 OFFCURVE",
"65 628 OFFCURVE",
"65 508 CURVE SMOOTH",
"65 485 LINE",
"200 479 LINE",
"200 508 LINE SMOOTH",
"200 554 OFFCURVE",
"231 587 OFFCURVE",
"280 587 CURVE SMOOTH",
"326 587 OFFCURVE",
"355 557 OFFCURVE",
"355 511 CURVE SMOOTH",
"355 400 OFFCURVE",
"180 409 OFFCURVE",
"180 277 CURVE SMOOTH",
"180 217 OFFCURVE",
"206 203 OFFCURVE",
"271 202 CURVE"
);
},
{
closed = 1;
nodes = (
"312 -1 OFFCURVE",
"349 33 OFFCURVE",
"349 77 CURVE SMOOTH",
"349 120 OFFCURVE",
"312 154 OFFCURVE",
"269 154 CURVE SMOOTH",
"227 154 OFFCURVE",
"190 120 OFFCURVE",
"190 76 CURVE SMOOTH",
"190 33 OFFCURVE",
"225 -1 OFFCURVE",
"268 -1 CURVE SMOOTH"
);
}
);
width = 541;
},
{
associatedMasterId = "4E2227F3-52E4-4048-A8EE-327B486EF0A4";
layerId = "A4BFC20F-4117-485E-A885-06E8CEBBC244";
name = "ExtraBold{177,100}";
paths = (
{
closed = 1;
nodes = (
"373 218 LINE",
"374 232 OFFCURVE",
"374 230 OFFCURVE",
"374 259 CURVE SMOOTH",
"374 334 OFFCURVE",
"539 341 OFFCURVE",
"539 507 CURVE SMOOTH",
"539 628 OFFCURVE",
"450 710 OFFCURVE",
"312 710 CURVE SMOOTH",
"170 710 OFFCURVE",
"72 622 OFFCURVE",
"72 492 CURVE SMOOTH",
"72 479 LINE",
"249 471 LINE",
"249 492 LINE SMOOTH",
"249 525 OFFCURVE",
"271 549 OFFCURVE",
"308 549 CURVE SMOOTH",
"340 549 OFFCURVE",
"360 529 OFFCURVE",
"360 497 CURVE SMOOTH",
"360 406 OFFCURVE",
"201 412 OFFCURVE",
"201 265 CURVE SMOOTH",
"201 208 OFFCURVE",
"192 237 OFFCURVE",
"201 218 CURVE"
);
},
{
closed = 1;
nodes = (
"349 -4 OFFCURVE",
"393 37 OFFCURVE",
"393 88 CURVE SMOOTH",
"393 139 OFFCURVE",
"348 180 OFFCURVE",
"298 180 CURVE SMOOTH",
"248 180 OFFCURVE",
"205 139 OFFCURVE",
"205 87 CURVE SMOOTH",
"205 37 OFFCURVE",
"246 -4 OFFCURVE",
"297 -4 CURVE SMOOTH"
);
}
);
width = 589;
}
);
unicode = 003F;
},
{
glyphname = quotedbl;
lastChange = "2016-10-25 03:41:03 +0000";
layers = (
{
layerId = "262880E7-CFE1-4BDA-902E-E24798F3240A";
paths = (
{
closed = 1;
nodes = (
"212 500 LINE",
"212 692 LINE",
"190 692 LINE",
"190 500 LINE"
);
},
{
closed = 1;
nodes = (
"102 500 LINE",
"102 692 LINE",
"80 692 LINE",
"80 500 LINE"
);
}
);
width = 292;
},
{
layerId = "4E2227F3-52E4-4048-A8EE-327B486EF0A4";
paths = (
{
closed = 1;
nodes = (
"388 460 LINE",
"408 700 LINE",
"230 700 LINE",
"250 460 LINE"
);
},
{
closed = 1;
nodes = (
"162 460 LINE",
"182 700 LINE",
"4 700 LINE",
"24 460 LINE"
);
}
);
width = 412;
}
);
leftKerningGroup = quotedbl;
leftMetricsKey = "=quotesingle";
rightKerningGroup = quotedbl;
rightMetricsKey = "=quotesingle";
unicode = 0022;
},
{
glyphname = quotesingle;
lastChange = "2016-10-25 03:41:03 +0000";
layers = (
{
layerId = "262880E7-CFE1-4BDA-902E-E24798F3240A";
paths = (
{
closed = 1;
nodes = (
"102 507 LINE",
"102 697 LINE",
"80 697 LINE",
"80 507 LINE"
);
}
);
width = 182;
},
{
layerId = "4E2227F3-52E4-4048-A8EE-327B486EF0A4";
paths = (
{
closed = 1;
nodes = (
"172 460 LINE",
"192 700 LINE",
"4 700 LINE",
"24 460 LINE"
);
}
);
width = 196;
}
);
leftKerningGroup = quotedbl;
leftMetricsKey = "=n-20";
rightKerningGroup = quotedbl;
rightMetricsKey = "=|n-20";
unicode = 0027;
},
{
glyphname = semicolon;
lastChange = "2016-10-25 03:41:03 +0000";
layers = (
{
layerId = "262880E7-CFE1-4BDA-902E-E24798F3240A";
paths = (
{
closed = 1;
nodes = (
"136 -60 LINE",
"172 147 LINE",
"150 147 LINE",
"114 -60 LINE"
);
},
{
closed = 1;
nodes = (
"178 370 OFFCURVE",
"197 388 OFFCURVE",
"197 411 CURVE",
"197 433 OFFCURVE",
"178 451 OFFCURVE",
"156 451 CURVE SMOOTH",
"134 451 OFFCURVE",
"115 433 OFFCURVE",
"115 411 CURVE SMOOTH",
"115 388 OFFCURVE",
"133 370 OFFCURVE",
"156 370 CURVE SMOOTH"
);
}
);
width = 304;
},
{
layerId = "4E2227F3-52E4-4048-A8EE-327B486EF0A4";
paths = (
{
closed = 1;
nodes = (
"154 -111 LINE",
"217 160 LINE",
"49 160 LINE",
"32 -111 LINE"
);
},
{
closed = 1;
nodes = (
"191 291 OFFCURVE",
"234 338 OFFCURVE",
"234 396 CURVE SMOOTH",
"234 454 OFFCURVE",
"182 500 OFFCURVE",
"129 500 CURVE SMOOTH",
"76 500 OFFCURVE",
"24 454 OFFCURVE",
"24 396 CURVE SMOOTH",
"24 338 OFFCURVE",
"67 291 OFFCURVE",
"129 291 CURVE SMOOTH"
);
}
);
width = 258;
}
);
leftKerningGroup = colon;
unicode = 003B;
},
{
glyphname = slash;
lastChange = "2016-10-25 03:41:03 +0000";
layers = (
{
layerId = "262880E7-CFE1-4BDA-902E-E24798F3240A";
paths = (
{
closed = 1;
nodes = (
"22 0 LINE",
"222 700 LINE",
"200 700 LINE",
"0 0 LINE"
);
}
);
width = 222;
},
{
layerId = "4E2227F3-52E4-4048-A8EE-327B486EF0A4";
paths = (
{
closed = 1;
nodes = (
"188 0 LINE",
"442 700 LINE",
"254 700 LINE",
"0 0 LINE"
);
}
);
width = 442;
}
);
unicode = 002F;
},
{
glyphname = emdash;
lastChange = "2016-10-25 03:41:03 +0000";
layers = (
{
layerId = "262880E7-CFE1-4BDA-902E-E24798F3240A";
paths = (
{
closed = 1;
nodes = (
"506 251 LINE",
"506 272 LINE",
"98 272 LINE",
"98 251 LINE"
);
}
);
width = 604;
},
{
layerId = "4E2227F3-52E4-4048-A8EE-327B486EF0A4";
paths = (
{
closed = 1;
nodes = (
"419 165 LINE",
"419 325 LINE",
"12 325 LINE",
"12 165 LINE"
);
}
);
width = 431;
}
);
leftKerningGroup = hyphen;
rightKerningGroup = hyphen;
unicode = 2014;
},
{
glyphname = hyphen;
lastChange = "2016-10-25 03:41:03 +0000";
layers = (
{
layerId = "262880E7-CFE1-4BDA-902E-E24798F3240A";
paths = (
{
closed = 1;
nodes = (
"356 251 LINE",
"356 272 LINE",
"98 272 LINE",
"98 251 LINE"
);
}
);
width = 454;
},
{
layerId = "4E2227F3-52E4-4048-A8EE-327B486EF0A4";
paths = (
{
closed = 1;
nodes = (
"359 165 LINE",
"359 325 LINE",
"72 325 LINE",
"72 165 LINE"
);
}
);
width = 454;
}
);
leftKerningGroup = hyphen;
rightKerningGroup = hyphen;
unicode = 002D;
},
{
glyphname = dollar;
lastChange = "2016-10-25 03:41:03 +0000";
layers = (
{
layerId = "262880E7-CFE1-4BDA-902E-E24798F3240A";
paths = (
{
closed = 1;
nodes = (
"349 -5 OFFCURVE",
"412 50 OFFCURVE",
"412 149 CURVE SMOOTH",
"412 255 OFFCURVE",
"339 307 OFFCURVE",
"257 361 CURVE SMOOTH",
"176 414 OFFCURVE",
"112 457 OFFCURVE",
"112 550 CURVE SMOOTH",
"112 634 OFFCURVE",
"164 684 OFFCURVE",
"248 684 CURVE SMOOTH",
"332 684 OFFCURVE",
"384 635 OFFCURVE",
"384 548 CURVE SMOOTH",
"384 500 LINE",
"406 500 LINE",
"406 550 LINE SMOOTH",
"406 650 OFFCURVE",
"346 705 OFFCURVE",
"248 705 CURVE SMOOTH",
"150 705 OFFCURVE",
"90 649 OFFCURVE",
"90 553 CURVE SMOOTH",
"90 446 OFFCURVE",
"165 394 OFFCURVE",
"243 342 CURVE SMOOTH",
"320 291 OFFCURVE",
"390 248 OFFCURVE",
"390 152 CURVE SMOOTH",
"390 67 OFFCURVE",
"335 15 OFFCURVE",
"250 15 CURVE SMOOTH",
"165 15 OFFCURVE",
"118 68 OFFCURVE",
"118 154 CURVE SMOOTH",
"118 200 LINE",
"96 200 LINE",
"96 150 LINE SMOOTH",
"96 50 OFFCURVE",
"152 -5 OFFCURVE",
"251 -5 CURVE SMOOTH"
);
},
{
closed = 1;
nodes = (
"265 -88 LINE",
"265 2 LINE",
"243 2 LINE",
"243 -88 LINE"
);
},
{
closed = 1;
nodes = (
"258 702 LINE",
"258 792 LINE",
"236 792 LINE",
"236 702 LINE"
);
}
);
width = 502;
},
{
layerId = "4E2227F3-52E4-4048-A8EE-327B486EF0A4";
paths = (
{
closed = 1;
nodes = (
"367 -8 OFFCURVE",
"456 70 OFFCURVE",
"456 187 CURVE SMOOTH",
"456 288 OFFCURVE",
"389 338 OFFCURVE",
"284 412 CURVE SMOOTH",
"217 459 OFFCURVE",
"197 475 OFFCURVE",
"197 508 CURVE SMOOTH",
"197 534 OFFCURVE",
"210 548 OFFCURVE",
"231 548 CURVE SMOOTH",
"252 548 OFFCURVE",
"266 534 OFFCURVE",
"266 514 CURVE SMOOTH",
"266 490 LINE",
"451 490 LINE",
"451 509 LINE SMOOTH",
"451 628 OFFCURVE",
"364 708 OFFCURVE",
"232 708 CURVE SMOOTH",
"99 708 OFFCURVE",
"12 628 OFFCURVE",
"12 510 CURVE SMOOTH",
"12 387 OFFCURVE",
"107 322 OFFCURVE",
"182 272 CURVE SMOOTH",
"252 225 OFFCURVE",
"271 211 OFFCURVE",
"271 186 CURVE SMOOTH",
"271 164 OFFCURVE",
"257 152 OFFCURVE",
"237 152 CURVE SMOOTH",
"216 152 OFFCURVE",
"202 166 OFFCURVE",
"202 188 CURVE SMOOTH",
"202 211 LINE",
"17 211 LINE",
"17 180 LINE SMOOTH",
"17 70 OFFCURVE",
"102 -8 OFFCURVE",
"235 -8 CURVE SMOOTH"
);
},
{
closed = 1;
nodes = (
"290 -64 LINE",
"290 57 LINE",
"175 57 LINE",
"175 -64 LINE"
);
},
{
closed = 1;
nodes = (
"290 653 LINE",
"290 774 LINE",
"176 774 LINE",
"176 653 LINE"
);
}
);
width = 468;
}
);
unicode = 0024;
},
{
glyphname = at;
lastChange = "2016-10-25 03:41:03 +0000";
layers = (
{
layerId = "262880E7-CFE1-4BDA-902E-E24798F3240A";
paths = (
{
closed = 1;
nodes = (
"640 -71 OFFCURVE",
"802 92 OFFCURVE",
"802 290 CURVE SMOOTH",
"802 488 OFFCURVE",
"640 651 OFFCURVE",
"441 651 CURVE SMOOTH",
"242 651 OFFCURVE",
"80 488 OFFCURVE",
"80 290 CURVE SMOOTH",
"80 92 OFFCURVE",
"242 -71 OFFCURVE",
"441 -71 CURVE SMOOTH"
);
},
{
closed = 1;
nodes = (
"254 -50 OFFCURVE",
"102 102 OFFCURVE",
"102 290 CURVE SMOOTH",
"102 478 OFFCURVE",
"254 630 OFFCURVE",
"441 630 CURVE SMOOTH",
"628 630 OFFCURVE",
"780 478 OFFCURVE",
"780 290 CURVE SMOOTH",
"780 102 OFFCURVE",
"628 -50 OFFCURVE",
"441 -50 CURVE SMOOTH"
);
},
{
closed = 1;
nodes = (
"504 99 OFFCURVE",
"548 146 OFFCURVE",
"548 221 CURVE SMOOTH",
"548 363 LINE SMOOTH",
"548 438 OFFCURVE",
"504 485 OFFCURVE",
"432 485 CURVE SMOOTH",
"359 485 OFFCURVE",
"311 439 OFFCURVE",
"311 364 CURVE SMOOTH",
"311 220 LINE SMOOTH",
"311 145 OFFCURVE",
"359 99 OFFCURVE",
"432 99 CURVE SMOOTH"
);
},
{
closed = 1;
nodes = (
"367 115 OFFCURVE",
"328 155 OFFCURVE",
"328 220 CURVE SMOOTH",
"328 364 LINE SMOOTH",
"328 429 OFFCURVE",
"369 469 OFFCURVE",
"432 469 CURVE SMOOTH",
"496 469 OFFCURVE",
"537 429 OFFCURVE",
"537 364 CURVE SMOOTH",
"537 220 LINE SMOOTH",
"537 155 OFFCURVE",
"498 115 OFFCURVE",
"432 115 CURVE SMOOTH"
);
},
{
closed = 1;
nodes = (
"553 104 LINE",
"553 480 LINE",
"537 480 LINE",
"537 104 LINE"
);
}
);
width = 882;
},
{
layerId = "4E2227F3-52E4-4048-A8EE-327B486EF0A4";
paths = (
{
closed = 1;
nodes = (
"653 -2 OFFCURVE",
"812 156 OFFCURVE",
"812 352 CURVE SMOOTH",
"812 546 OFFCURVE",
"653 704 OFFCURVE",
"459 704 CURVE SMOOTH",
"265 704 OFFCURVE",
"107 546 OFFCURVE",
"107 352 CURVE SMOOTH",
"107 156 OFFCURVE",
"265 -2 OFFCURVE",
"459 -2 CURVE SMOOTH"
);
},
{
closed = 1;
nodes = (
"337 128 OFFCURVE",
"237 228 OFFCURVE",
"237 352 CURVE SMOOTH",
"237 474 OFFCURVE",
"337 574 OFFCURVE",
"459 574 CURVE SMOOTH",
"582 574 OFFCURVE",
"682 474 OFFCURVE",
"682 352 CURVE SMOOTH",
"682 228 OFFCURVE",
"582 128 OFFCURVE",
"459 128 CURVE SMOOTH"
);
},
{
closed = 1;
nodes = (
"482 197 OFFCURVE",
"520 241 OFFCURVE",
"520 301 CURVE SMOOTH",
"520 385 LINE SMOOTH",
"520 445 OFFCURVE",
"482 489 OFFCURVE",
"417 489 CURVE SMOOTH",
"372 489 OFFCURVE",
"333 466 OFFCURVE",
"333 405 CURVE SMOOTH",
"333 281 LINE SMOOTH",
"333 219 OFFCURVE",
"372 197 OFFCURVE",
"417 197 CURVE SMOOTH"
);
},
{
closed = 1;
nodes = (
"447.571 283.857 OFFCURVE",
"440.714 290.714 OFFCURVE",
"440.714 302.143 CURVE SMOOTH",
"440.714 385.571 LINE SMOOTH",
"440.714 397 OFFCURVE",
"447.571 403.857 OFFCURVE",
"457.286 403.857 CURVE SMOOTH",
"467 403.857 OFFCURVE",
"473.857 397 OFFCURVE",
"473.857 385.571 CURVE",
"473.857 302.143 LINE",
"473.857 290.714 OFFCURVE",
"467 283.857 OFFCURVE",
"457.286 283.857 CURVE SMOOTH"
);
},
{
closed = 1;
nodes = (
"581 201 LINE",
"581 486 LINE",
"474 486 LINE",
"474 201 LINE"
);
}
);
width = 882;
}
);
unicode = 0040;
},
{
glyphname = copyright;
lastChange = "2016-10-25 03:41:03 +0000";
layers = (
{
layerId = "262880E7-CFE1-4BDA-902E-E24798F3240A";
paths = (
{
closed = 1;
nodes = (
"640 -71 OFFCURVE",
"802 92 OFFCURVE",
"802 290 CURVE SMOOTH",
"802 488 OFFCURVE",
"640 651 OFFCURVE",
"441 651 CURVE SMOOTH",
"242 651 OFFCURVE",
"80 488 OFFCURVE",
"80 290 CURVE SMOOTH",
"80 92 OFFCURVE",
"242 -71 OFFCURVE",
"441 -71 CURVE SMOOTH"
);
},
{
closed = 1;
nodes = (
"254 -50 OFFCURVE",
"102 102 OFFCURVE",
"102 290 CURVE SMOOTH",
"102 478 OFFCURVE",
"254 630 OFFCURVE",
"441 630 CURVE SMOOTH",
"628 630 OFFCURVE",
"780 478 OFFCURVE",
"780 290 CURVE SMOOTH",
"780 102 OFFCURVE",
"628 -50 OFFCURVE",
"441 -50 CURVE SMOOTH"
);
},
{
closed = 1;
nodes = (
"513 99 OFFCURVE",
"559 144 OFFCURVE",
"559 219 CURVE SMOOTH",
"559 221 LINE",
"543 221 LINE",
"543 219 LINE SMOOTH",
"543 154 OFFCURVE",
"504 114 OFFCURVE",
"438 114 CURVE SMOOTH",
"373 114 OFFCURVE",
"334 154 OFFCURVE",
"334 219 CURVE SMOOTH",
"334 363 LINE SMOOTH",
"334 429 OFFCURVE",
"375 468 OFFCURVE",
"438 468 CURVE SMOOTH",
"502 468 OFFCURVE",
"543 429 OFFCURVE",
"543 363 CURVE SMOOTH",
"543 362 LINE",
"559 362 LINE",
"559 363 LINE SMOOTH",
"559 438 OFFCURVE",
"513 483 OFFCURVE",
"438 483 CURVE SMOOTH",
"364 483 OFFCURVE",
"317 438 OFFCURVE",
"317 363 CURVE SMOOTH",
"317 219 LINE SMOOTH",
"317 144 OFFCURVE",
"364 99 OFFCURVE",
"438 99 CURVE SMOOTH"
);
}
);
width = 882;
},
{
layerId = "4E2227F3-52E4-4048-A8EE-327B486EF0A4";
paths = (
{
closed = 1;
nodes = (
"653 -2 OFFCURVE",
"812 156 OFFCURVE",
"812 352 CURVE SMOOTH",
"812 546 OFFCURVE",
"653 704 OFFCURVE",
"459 704 CURVE SMOOTH",
"265 704 OFFCURVE",
"107 546 OFFCURVE",
"107 352 CURVE SMOOTH",
"107 156 OFFCURVE",
"265 -2 OFFCURVE",
"459 -2 CURVE SMOOTH"
);
},
{
closed = 1;
nodes = (
"337 128 OFFCURVE",
"237 228 OFFCURVE",
"237 352 CURVE SMOOTH",
"237 474 OFFCURVE",
"337 574 OFFCURVE",
"459 574 CURVE SMOOTH",
"582 574 OFFCURVE",
"682 474 OFFCURVE",
"682 352 CURVE SMOOTH",
"682 228 OFFCURVE",
"582 128 OFFCURVE",
"459 128 CURVE SMOOTH"
);
},
{
closed = 1;
nodes = (
"536 204 OFFCURVE",
"584 248 OFFCURVE",
"584 312 CURVE SMOOTH",
"584 335 LINE",
"476 335 LINE",
"476 308 LINE SMOOTH",
"476 298 OFFCURVE",
"469 290 OFFCURVE",
"460 290 CURVE SMOOTH",
"450 290 OFFCURVE",
"443 298 OFFCURVE",
"443 308 CURVE SMOOTH",
"443 395 LINE SMOOTH",
"443 406 OFFCURVE",
"450 414 OFFCURVE",
"460 414 CURVE SMOOTH",
"469 414 OFFCURVE",
"476 406 OFFCURVE",
"476 395 CURVE SMOOTH",
"476 369 LINE",
"584 368 LINE",
"584 391 LINE SMOOTH",
"584 456 OFFCURVE",
"536 499 OFFCURVE",
"460 499 CURVE SMOOTH",
"383 499 OFFCURVE",
"336 456 OFFCURVE",
"336 391 CURVE SMOOTH",
"336 312 LINE SMOOTH",
"336 248 OFFCURVE",
"383 204 OFFCURVE",
"460 204 CURVE SMOOTH"
);
}
);
width = 882;
}
);
unicode = 00A9;
},
{
glyphname = registered;
lastChange = "2016-10-25 03:41:03 +0000";
layers = (
{
layerId = "262880E7-CFE1-4BDA-902E-E24798F3240A";
paths = (
{
closed = 1;
nodes = (
"640 -72 OFFCURVE",
"802 91 OFFCURVE",
"802 289 CURVE SMOOTH",
"802 487 OFFCURVE",
"640 650 OFFCURVE",
"441 650 CURVE SMOOTH",
"242 650 OFFCURVE",
"80 487 OFFCURVE",
"80 289 CURVE SMOOTH",
"80 91 OFFCURVE",
"242 -72 OFFCURVE",
"441 -72 CURVE SMOOTH"
);
},
{
closed = 1;
nodes = (
"540.533 101 LINE",
"476 287.133 LINE",
"466.4 282.867 LINE",
"528.8 101 LINE"
);
},
{
closed = 1;
nodes = (
"254 -51 OFFCURVE",
"102 101 OFFCURVE",
"102 289 CURVE SMOOTH",
"102 477 OFFCURVE",
"254 629 OFFCURVE",
"441 629 CURVE SMOOTH",
"628 629 OFFCURVE",
"780 477 OFFCURVE",
"780 289 CURVE SMOOTH",
"780 101 OFFCURVE",
"628 -51 OFFCURVE",
"441 -51 CURVE SMOOTH"
);
},
{
closed = 1;
nodes = (
"369.867 101 LINE",
"369.867 463.667 LINE",
"466.4 463.667 LINE SMOOTH",
"511.2 463.667 OFFCURVE",
"541.067 429.533 OFFCURVE",
"541.067 378.333 CURVE SMOOTH",
"541.067 327.133 OFFCURVE",
"511.2 293 OFFCURVE",
"466.4 293 CURVE SMOOTH",
"367.2 293 LINE",
"367.2 282.333 LINE",
"465.333 282.333 LINE SMOOTH",
"517.6 282.333 OFFCURVE",
"552.267 320.2 OFFCURVE",
"552.267 378.333 CURVE SMOOTH",
"552.267 436.467 OFFCURVE",
"517.6 475.4 OFFCURVE",
"465.333 475.4 CURVE SMOOTH",
"357.6 475.4 LINE",
"357.6 101 LINE"
);
}
